<svg width="24" height="38" viewBox="0 0 24 38" fill="none" xmlns="http://www.w3.org/2000/svg">
<g clip-path="url(#clip0_11_1547)">
<g filter="url(#filter0_f_11_1547)">
<path d="M2.82947 10.4019C2.33003 9.90669 1.93432 9.3172 1.66541 8.6678C1.3965 8.01841 1.25976 7.32208 1.26316 6.6194C1.26316 5.19823 1.82876 3.83526 2.83553 2.83034C3.84231 1.82542 5.20779 1.26086 6.63158 1.26086C8.62737 1.26086 10.3705 2.34517 11.2926 3.95904H12.7074C13.1761 3.13831 13.8544 2.45624 14.6732 1.98228C15.492 1.50831 16.4219 1.25939 17.3684 1.26086C18.7922 1.26086 20.1577 1.82542 21.1645 2.83034C22.1712 3.83526 22.7368 5.19823 22.7368 6.6194C22.7368 8.09458 22.1053 9.45628 21.1705 10.4019L12 19.543L2.82947 10.4019ZM22.0547 11.2971C23.2547 10.0867 24 8.44761 24 6.6194C24 4.86383 23.3013 3.18017 22.0577 1.93879C20.814 0.697419 19.1272 2.27606e-05 17.3684 2.27606e-05C15.1579 2.27606e-05 13.2 1.07173 12 2.73603C11.3875 1.88686 10.581 1.19569 9.64734 0.719868C8.71371 0.244043 7.67987 -0.00272883 6.63158 2.27606e-05C4.87278 2.27606e-05 3.18601 0.697419 1.94234 1.93879C0.698682 3.18017 0 4.86383 0 6.6194C0 8.44761 0.745263 10.0867 1.94526 11.2971L12 21.3333L22.0547 11.2971Z" fill="#EC4899"/>
</g>
<path d="M2.82947 10.7352C2.33003 10.24 1.93432 9.65053 1.66541 9.00113C1.3965 8.35173 1.25976 7.65541 1.26316 6.95273C1.26316 5.53156 1.82876 4.16859 2.83553 3.16367C3.84231 2.15874 5.20779 1.59419 6.63158 1.59419C8.62737 1.59419 10.3705 2.6785 11.2926 4.29237H12.7074C13.1761 3.47164 13.8544 2.78957 14.6732 2.3156C15.492 1.84164 16.4219 1.59272 17.3684 1.59419C18.7922 1.59419 20.1577 2.15874 21.1645 3.16367C22.1712 4.16859 22.7368 5.53156 22.7368 6.95273C22.7368 8.42791 22.1053 9.78961 21.1705 10.7352L12 19.8763L2.82947 10.7352ZM22.0547 11.6304C23.2547 10.42 24 8.78094 24 6.95273C24 5.19716 23.3013 3.5135 22.0577 2.27212C20.814 1.03075 19.1272 0.333351 17.3684 0.333351C15.1579 0.333351 13.2 1.40506 12 3.06936C11.3875 2.22019 10.581 1.52902 9.64734 1.0532C8.71371 0.577371 7.67987 0.330599 6.63158 0.333351C4.87278 0.333351 3.18601 1.03075 1.94234 2.27212C0.698682 3.5135 0 5.19716 0 6.95273C0 8.78094 0.745263 10.42 1.94526 11.6304L12 21.6667L22.0547 11.6304Z" fill="#EC4899"/>
</g>
<defs>
<filter id="filter0_f_11_1547" x="-0.6" y="-0.6" width="25.2" height="22.5333" filterUnits="userSpaceOnUse" color-interpolation-filters="sRGB">
<feFlood flood-opacity="0" result="BackgroundImageFix"/>
<feBlend mode="normal" in="SourceGraphic" in2="BackgroundImageFix" result="shape"/>
<feGaussianBlur stdDeviation="0.3" result="effect1_foregroundBlur_11_1547"/>
</filter>
<clipPath id="clip0_11_1547">
<rect width="24" height="38" fill="white"/>
</clipPath>
</defs>
</svg>
