<svg width="24" height="38" viewBox="0 0 24 38" fill="none" xmlns="http://www.w3.org/2000/svg">
<g clip-path="url(#clip0_11_1549)">
<g filter="url(#filter0_f_11_1549)">
<path d="M2.82947 15.4019C2.33003 14.9067 1.93432 14.3172 1.66541 13.6678C1.3965 13.0184 1.25976 12.3221 1.26316 11.6194C1.26316 10.1982 1.82876 8.83526 2.83553 7.83034C3.84231 6.82542 5.20779 6.26086 6.63158 6.26086C8.62737 6.26086 10.3705 7.34517 11.2926 8.95904H12.7074C13.1761 8.13831 13.8544 7.45624 14.6732 6.98228C15.492 6.50831 16.4219 6.25939 17.3684 6.26086C18.7922 6.26086 20.1577 6.82542 21.1645 7.83034C22.1712 8.83526 22.7368 10.1982 22.7368 11.6194C22.7368 13.0946 22.1053 14.4563 21.1705 15.4019L12 24.543L2.82947 15.4019ZM22.0547 16.2971C23.2547 15.0867 24 13.4476 24 11.6194C24 9.86383 23.3013 8.18017 22.0577 6.93879C20.814 5.69742 19.1272 5.00002 17.3684 5.00002C15.1579 5.00002 13.2 6.07173 12 7.73603C11.3875 6.88686 10.581 6.19569 9.64734 5.71987C8.71371 5.24404 7.67987 4.99727 6.63158 5.00002C4.87278 5.00002 3.18601 5.69742 1.94234 6.93879C0.698682 8.18017 0 9.86383 0 11.6194C0 13.4476 0.745263 15.0867 1.94526 16.2971L12 26.3333L22.0547 16.2971Z" fill="#EC4899"/>
</g>
<path d="M2.82947 15.7352C2.33003 15.24 1.93432 14.6505 1.66541 14.0011C1.3965 13.3517 1.25976 12.6554 1.26316 11.9527C1.26316 10.5316 1.82876 9.16859 2.83553 8.16367C3.84231 7.15874 5.20779 6.59419 6.63158 6.59419C8.62737 6.59419 10.3705 7.6785 11.2926 9.29237H12.7074C13.1761 8.47164 13.8544 7.78957 14.6732 7.3156C15.492 6.84164 16.4219 6.59272 17.3684 6.59419C18.7922 6.59419 20.1577 7.15874 21.1645 8.16367C22.1712 9.16859 22.7368 10.5316 22.7368 11.9527C22.7368 13.4279 22.1053 14.7896 21.1705 15.7352L12 24.8763L2.82947 15.7352ZM22.0547 16.6304C23.2547 15.42 24 13.7809 24 11.9527C24 10.1972 23.3013 8.5135 22.0577 7.27212C20.814 6.03075 19.1272 5.33335 17.3684 5.33335C15.1579 5.33335 13.2 6.40506 12 8.06936C11.3875 7.22019 10.581 6.52902 9.64734 6.0532C8.71371 5.57737 7.67987 5.3306 6.63158 5.33335C4.87278 5.33335 3.18601 6.03075 1.94234 7.27212C0.698682 8.5135 0 10.1972 0 11.9527C0 13.7809 0.745263 15.42 1.94526 16.6304L12 26.6667L22.0547 16.6304Z" fill="#EC4899"/>
</g>
<defs>
<filter id="filter0_f_11_1549" x="-0.6" y="4.4" width="25.2" height="22.5333" filterUnits="userSpaceOnUse" color-interpolation-filters="sRGB">
<feFlood flood-opacity="0" result="BackgroundImageFix"/>
<feBlend mode="normal" in="SourceGraphic" in2="BackgroundImageFix" result="shape"/>
<feGaussianBlur stdDeviation="0.3" result="effect1_foregroundBlur_11_1549"/>
</filter>
<clipPath id="clip0_11_1549">
<rect width="24" height="38" fill="white"/>
</clipPath>
</defs>
</svg>
