<svg width="34" height="39" viewBox="0 0 34 39" fill="none" xmlns="http://www.w3.org/2000/svg">
<g filter="url(#filter0_f_7_847)">
<path d="M7.83037 11.0019C7.33093 10.5067 6.93522 9.91721 6.66631 9.26781C6.3974 8.61841 6.26066 7.92209 6.26406 7.21941C6.26406 5.79823 6.82966 4.43527 7.83643 3.43034C8.84321 2.42542 10.2087 1.86086 11.6325 1.86086C13.6283 1.86086 15.3714 2.94518 16.2935 4.55905H17.7083C18.177 3.73832 18.8553 3.05624 19.6741 2.58228C20.4929 2.10832 21.4228 1.8594 22.3693 1.86086C23.7931 1.86086 25.1586 2.42542 26.1654 3.43034C27.1721 4.43527 27.7377 5.79823 27.7377 7.21941C27.7377 8.69458 27.1062 10.0563 26.1714 11.0019L17.0009 20.143L7.83037 11.0019ZM27.0556 11.8971C28.2556 10.6867 29.0009 9.04762 29.0009 7.21941C29.0009 5.46384 28.3022 3.78017 27.0586 2.5388C25.8149 1.29743 24.1281 0.600029 22.3693 0.600029C20.1588 0.600029 18.2009 1.67174 17.0009 3.33604C16.3884 2.48687 15.5819 1.7957 14.6482 1.31987C13.7146 0.844049 12.6808 0.597277 11.6325 0.600029C9.87368 0.600029 8.18691 1.29743 6.94324 2.5388C5.69958 3.78017 5.0009 5.46384 5.0009 7.21941C5.0009 9.04762 5.74616 10.6867 6.94616 11.8971L17.0009 21.9333L27.0556 11.8971Z" fill="#EC4899"/>
</g>
<path d="M7.83037 11.3352C7.33093 10.84 6.93522 10.2505 6.66631 9.60114C6.3974 8.95174 6.26066 8.25541 6.26406 7.55274C6.26406 6.13156 6.82966 4.7686 7.83643 3.76367C8.84321 2.75875 10.2087 2.19419 11.6325 2.19419C13.6283 2.19419 15.3714 3.27851 16.2935 4.89238H17.7083C18.177 4.07165 18.8553 3.38957 19.6741 2.91561C20.4929 2.44165 21.4228 2.19273 22.3693 2.19419C23.7931 2.19419 25.1586 2.75875 26.1654 3.76367C27.1721 4.7686 27.7377 6.13156 27.7377 7.55274C27.7377 9.02791 27.1062 10.3896 26.1714 11.3352L17.0009 20.4763L7.83037 11.3352ZM27.0556 12.2304C28.2556 11.02 29.0009 9.38095 29.0009 7.55274C29.0009 5.79717 28.3022 4.1135 27.0586 2.87213C25.8149 1.63075 24.1281 0.933357 22.3693 0.933357C20.1588 0.933357 18.2009 2.00507 17.0009 3.66937C16.3884 2.82019 15.5819 2.12903 14.6482 1.6532C13.7146 1.17738 12.6808 0.930606 11.6325 0.933357C9.87368 0.933357 8.18691 1.63075 6.94324 2.87213C5.69958 4.1135 5.0009 5.79717 5.0009 7.55274C5.0009 9.38095 5.74616 11.02 6.94616 12.2304L17.0009 22.2667L27.0556 12.2304Z" fill="#EC4899"/>
<g filter="url(#filter1_f_7_847)">
<path fill-rule="evenodd" clip-rule="evenodd" d="M1.85375 27.2294L1.85097 27.2344C1.80605 27.2137 1.71922 27.1624 1.61085 27.0983C1.37522 26.9589 1.07143 26.8196 0.841707 26.7444C-0.488013 26.3093 0.519688 25.523 1.42803 26.5915C1.57114 26.7598 1.65504 26.9097 1.72088 27.0273C1.7695 27.1141 1.80827 27.1833 1.85375 27.2294Z" fill="#EC4899"/>
<path fill-rule="evenodd" clip-rule="evenodd" d="M1.85375 27.2294L1.85097 27.2344C1.80605 27.2137 1.71922 27.1624 1.61085 27.0983C1.37522 26.9589 1.07143 26.8196 0.841707 26.7444C-0.488013 26.3093 0.519688 25.523 1.42803 26.5915C1.57114 26.7598 1.65504 26.9097 1.72088 27.0273C1.7695 27.1141 1.80827 27.1833 1.85375 27.2294Z" fill="#EC4899"/>
<path fill-rule="evenodd" clip-rule="evenodd" d="M12.3186 27.0409L12.3167 27.0442C12.285 27.0295 12.2234 26.9931 12.1465 26.9478C11.9795 26.8492 11.7646 26.7497 11.6026 26.6951C10.6647 26.3791 11.3598 25.8558 12.0113 26.5988C12.114 26.7159 12.1749 26.8195 12.2227 26.9008C12.2579 26.9609 12.2861 27.0087 12.3186 27.0409Z" fill="#EC4899"/>
<path fill-rule="evenodd" clip-rule="evenodd" d="M12.3186 27.0409L12.3167 27.0442C12.285 27.0295 12.2234 26.9931 12.1465 26.9478C11.9795 26.8492 11.7646 26.7497 11.6026 26.6951C10.6647 26.3791 11.3598 25.8558 12.0113 26.5988C12.114 26.7159 12.1749 26.8195 12.2227 26.9008C12.2579 26.9609 12.2861 27.0087 12.3186 27.0409Z" fill="#EC4899"/>
<path fill-rule="evenodd" clip-rule="evenodd" d="M21.6281 27.0409L21.63 27.0442C21.6618 27.0295 21.7233 26.9931 21.8002 26.9478C21.9672 26.8492 22.1821 26.7497 22.3441 26.6951C23.282 26.3791 22.5869 25.8558 21.9354 26.5988C21.8327 26.7159 21.7718 26.8195 21.7241 26.9008C21.6888 26.9609 21.6606 27.0087 21.6281 27.0409Z" fill="#EC4899"/>
<path fill-rule="evenodd" clip-rule="evenodd" d="M21.6281 27.0409L21.63 27.0442C21.6618 27.0295 21.7233 26.9931 21.8002 26.9478C21.9672 26.8492 22.1821 26.7497 22.3441 26.6951C23.282 26.3791 22.5869 25.8558 21.9354 26.5988C21.8327 26.7159 21.7718 26.8195 21.7241 26.9008C21.6888 26.9609 21.6606 27.0087 21.6281 27.0409Z" fill="#EC4899"/>
<path fill-rule="evenodd" clip-rule="evenodd" d="M32.1375 27.2598L32.1408 27.2657C32.1861 27.2457 32.2727 27.1939 32.3808 27.1293C32.6158 26.9888 32.9221 26.854 33.1562 26.7867C34.5115 26.3974 33.392 25.4112 32.5301 26.5626C32.3943 26.7441 32.3189 26.9092 32.2598 27.0387C32.2161 27.1344 32.1813 27.2106 32.1375 27.2598Z" fill="#EC4899"/>
<path fill-rule="evenodd" clip-rule="evenodd" d="M32.1375 27.2598L32.1408 27.2657C32.1861 27.2457 32.2727 27.1939 32.3808 27.1293C32.6158 26.9888 32.9221 26.854 33.1562 26.7867C34.5115 26.3974 33.392 25.4112 32.5301 26.5626C32.3943 26.7441 32.3189 26.9092 32.2598 27.0387C32.2161 27.1344 32.1813 27.2106 32.1375 27.2598Z" fill="#EC4899"/>
</g>
<g filter="url(#filter2_f_7_847)">
<path d="M29.0009 30.6C29.0009 31.1523 23.6283 31.6 17.0009 31.6C10.3735 31.6 5.0009 31.1523 5.0009 30.6C5.0009 30.0477 10.3735 29.6 17.0009 29.6C23.6283 29.6 29.0009 30.0477 29.0009 30.6Z" stroke="#EC4899" stroke-width="0.3" stroke-miterlimit="1.46628"/>
</g>
<g filter="url(#filter3_f_7_847)">
<ellipse cx="17.0009" cy="30.6" rx="7.2" ry="1" stroke="#EC4899" stroke-width="0.3" stroke-miterlimit="1.46628"/>
</g>
<g filter="url(#filter4_f_7_847)">
<ellipse cx="17.0009" cy="30.6" rx="9.6" ry="1" stroke="#EC4899" stroke-width="0.3" stroke-miterlimit="1.46628"/>
</g>
<g filter="url(#filter5_f_7_847)">
<path d="M14.0009 17.6H21.0009L18.5009 20.6H16.5009L14.0009 17.6Z" fill="#EC4899" fill-opacity="0.99"/>
</g>
<g filter="url(#filter6_f_7_847)">
<path d="M10.0009 14.6H23.0009L19.4554 18.6H14.7282L10.0009 14.6Z" fill="#EC4899" fill-opacity="0.99"/>
</g>
<defs>
<filter id="filter0_f_7_847" x="4.4009" y="6.07967e-06" width="25.2" height="22.5333" filterUnits="userSpaceOnUse" color-interpolation-filters="sRGB">
<feFlood flood-opacity="0" result="BackgroundImageFix"/>
<feBlend mode="normal" in="SourceGraphic" in2="BackgroundImageFix" result="shape"/>
<feGaussianBlur stdDeviation="0.3" result="effect1_foregroundBlur_7_847"/>
</filter>
<filter id="filter1_f_7_847" x="-3.05474e-06" y="14.4" width="33.9878" height="24.4" filterUnits="userSpaceOnUse" color-interpolation-filters="sRGB">
<feFlood flood-opacity="0" result="BackgroundImageFix"/>
<feBlend mode="normal" in="SourceGraphic" in2="BackgroundImageFix" result="shape"/>
<feGaussianBlur stdDeviation="0.1" result="effect1_foregroundBlur_7_847"/>
</filter>
<filter id="filter2_f_7_847" x="4.65091" y="29.25" width="24.7" height="2.69999" filterUnits="userSpaceOnUse" color-interpolation-filters="sRGB">
<feFlood flood-opacity="0" result="BackgroundImageFix"/>
<feBlend mode="normal" in="SourceGraphic" in2="BackgroundImageFix" result="shape"/>
<feGaussianBlur stdDeviation="0.1" result="effect1_foregroundBlur_7_847"/>
</filter>
<filter id="filter3_f_7_847" x="9.45091" y="29.25" width="15.1" height="2.69999" filterUnits="userSpaceOnUse" color-interpolation-filters="sRGB">
<feFlood flood-opacity="0" result="BackgroundImageFix"/>
<feBlend mode="normal" in="SourceGraphic" in2="BackgroundImageFix" result="shape"/>
<feGaussianBlur stdDeviation="0.1" result="effect1_foregroundBlur_7_847"/>
</filter>
<filter id="filter4_f_7_847" x="7.0509" y="29.25" width="19.9" height="2.69999" filterUnits="userSpaceOnUse" color-interpolation-filters="sRGB">
<feFlood flood-opacity="0" result="BackgroundImageFix"/>
<feBlend mode="normal" in="SourceGraphic" in2="BackgroundImageFix" result="shape"/>
<feGaussianBlur stdDeviation="0.1" result="effect1_foregroundBlur_7_847"/>
</filter>
<filter id="filter5_f_7_847" x="13.2009" y="16.8" width="8.6" height="4.6" filterUnits="userSpaceOnUse" color-interpolation-filters="sRGB">
<feFlood flood-opacity="0" result="BackgroundImageFix"/>
<feBlend mode="normal" in="SourceGraphic" in2="BackgroundImageFix" result="shape"/>
<feGaussianBlur stdDeviation="0.4" result="effect1_foregroundBlur_7_847"/>
</filter>
<filter id="filter6_f_7_847" x="9.2009" y="13.8" width="14.6" height="5.6" filterUnits="userSpaceOnUse" color-interpolation-filters="sRGB">
<feFlood flood-opacity="0" result="BackgroundImageFix"/>
<feBlend mode="normal" in="SourceGraphic" in2="BackgroundImageFix" result="shape"/>
<feGaussianBlur stdDeviation="0.4" result="effect1_foregroundBlur_7_847"/>
</filter>
</defs>
</svg>
