<svg width="24" height="38" viewBox="0 0 24 38" fill="none" xmlns="http://www.w3.org/2000/svg">
<g clip-path="url(#clip0_11_1548)">
<g filter="url(#filter0_f_11_1548)">
<path d="M2.82947 13.4019C2.33003 12.9067 1.93432 12.3172 1.66541 11.6678C1.3965 11.0184 1.25976 10.3221 1.26316 9.6194C1.26316 8.19823 1.82876 6.83526 2.83553 5.83034C3.84231 4.82542 5.20779 4.26086 6.63158 4.26086C8.62737 4.26086 10.3705 5.34517 11.2926 6.95904H12.7074C13.1761 6.13831 13.8544 5.45624 14.6732 4.98228C15.492 4.50831 16.4219 4.25939 17.3684 4.26086C18.7922 4.26086 20.1577 4.82542 21.1645 5.83034C22.1712 6.83526 22.7368 8.19823 22.7368 9.6194C22.7368 11.0946 22.1053 12.4563 21.1705 13.4019L12 22.543L2.82947 13.4019ZM22.0547 14.2971C23.2547 13.0867 24 11.4476 24 9.6194C24 7.86383 23.3013 6.18017 22.0577 4.93879C20.814 3.69742 19.1272 3.00002 17.3684 3.00002C15.1579 3.00002 13.2 4.07173 12 5.73603C11.3875 4.88686 10.581 4.19569 9.64734 3.71987C8.71371 3.24404 7.67987 2.99727 6.63158 3.00002C4.87278 3.00002 3.18601 3.69742 1.94234 4.93879C0.698682 6.18017 0 7.86383 0 9.6194C0 11.4476 0.745263 13.0867 1.94526 14.2971L12 24.3333L22.0547 14.2971Z" fill="#EC4899"/>
</g>
<path d="M2.82947 13.7352C2.33003 13.24 1.93432 12.6505 1.66541 12.0011C1.3965 11.3517 1.25976 10.6554 1.26316 9.95273C1.26316 8.53156 1.82876 7.16859 2.83553 6.16367C3.84231 5.15874 5.20779 4.59419 6.63158 4.59419C8.62737 4.59419 10.3705 5.6785 11.2926 7.29237H12.7074C13.1761 6.47164 13.8544 5.78957 14.6732 5.3156C15.492 4.84164 16.4219 4.59272 17.3684 4.59419C18.7922 4.59419 20.1577 5.15874 21.1645 6.16367C22.1712 7.16859 22.7368 8.53156 22.7368 9.95273C22.7368 11.4279 22.1053 12.7896 21.1705 13.7352L12 22.8763L2.82947 13.7352ZM22.0547 14.6304C23.2547 13.42 24 11.7809 24 9.95273C24 8.19716 23.3013 6.5135 22.0577 5.27212C20.814 4.03075 19.1272 3.33335 17.3684 3.33335C15.1579 3.33335 13.2 4.40506 12 6.06936C11.3875 5.22019 10.581 4.52902 9.64734 4.0532C8.71371 3.57737 7.67987 3.3306 6.63158 3.33335C4.87278 3.33335 3.18601 4.03075 1.94234 5.27212C0.698682 6.5135 0 8.19716 0 9.95273C0 11.7809 0.745263 13.42 1.94526 14.6304L12 24.6667L22.0547 14.6304Z" fill="#EC4899"/>
</g>
<defs>
<filter id="filter0_f_11_1548" x="-0.6" y="2.4" width="25.2" height="22.5333" filterUnits="userSpaceOnUse" color-interpolation-filters="sRGB">
<feFlood flood-opacity="0" result="BackgroundImageFix"/>
<feBlend mode="normal" in="SourceGraphic" in2="BackgroundImageFix" result="shape"/>
<feGaussianBlur stdDeviation="0.3" result="effect1_foregroundBlur_11_1548"/>
</filter>
<clipPath id="clip0_11_1548">
<rect width="24" height="38" fill="white"/>
</clipPath>
</defs>
</svg>
