<svg width="26" height="39" viewBox="0 0 26 39" fill="none" xmlns="http://www.w3.org/2000/svg">
<g filter="url(#filter0_f_7_892)">
<path d="M3.62948 11.0019C3.13003 10.5067 2.73433 9.91721 2.46541 9.26781C2.1965 8.61841 2.05976 7.92209 2.06316 7.21941C2.06316 5.79823 2.62876 4.43527 3.63554 3.43034C4.64231 2.42542 6.00779 1.86086 7.43158 1.86086C9.42737 1.86086 11.1705 2.94518 12.0926 4.55905H13.5074C13.9762 3.73832 14.6545 3.05624 15.4732 2.58228C16.292 2.10832 17.2219 1.8594 18.1684 1.86086C19.5922 1.86086 20.9577 2.42542 21.9645 3.43034C22.9712 4.43527 23.5368 5.79823 23.5368 7.21941C23.5368 8.69458 22.9053 10.0563 21.9705 11.0019L12.8 20.143L3.62948 11.0019ZM22.8547 11.8971C24.0547 10.6867 24.8 9.04762 24.8 7.21941C24.8 5.46384 24.1013 3.78017 22.8577 2.5388C21.614 1.29743 19.9272 0.600029 18.1684 0.600029C15.9579 0.600029 14 1.67174 12.8 3.33604C12.1875 2.48687 11.381 1.7957 10.4473 1.31987C9.51371 0.844049 8.47987 0.597277 7.43158 0.600029C5.67278 0.600029 3.98601 1.29743 2.74235 2.5388C1.49869 3.78017 0.800003 5.46384 0.800003 7.21941C0.800003 9.04762 1.54527 10.6867 2.74527 11.8971L12.8 21.9333L22.8547 11.8971Z" fill="#EC4899"/>
</g>
<path d="M3.62948 11.3352C3.13003 10.84 2.73433 10.2505 2.46541 9.60114C2.1965 8.95174 2.05976 8.25541 2.06316 7.55274C2.06316 6.13156 2.62876 4.7686 3.63554 3.76367C4.64231 2.75875 6.00779 2.19419 7.43158 2.19419C9.42737 2.19419 11.1705 3.27851 12.0926 4.89238H13.5074C13.9762 4.07165 14.6545 3.38957 15.4732 2.91561C16.292 2.44165 17.2219 2.19273 18.1684 2.19419C19.5922 2.19419 20.9577 2.75875 21.9645 3.76367C22.9712 4.7686 23.5368 6.13156 23.5368 7.55274C23.5368 9.02791 22.9053 10.3896 21.9705 11.3352L12.8 20.4763L3.62948 11.3352ZM22.8547 12.2304C24.0547 11.02 24.8 9.38095 24.8 7.55274C24.8 5.79717 24.1013 4.1135 22.8577 2.87213C21.614 1.63075 19.9272 0.933357 18.1684 0.933357C15.9579 0.933357 14 2.00507 12.8 3.66937C12.1875 2.82019 11.381 2.12903 10.4473 1.6532C9.51371 1.17738 8.47987 0.930606 7.43158 0.933357C5.67278 0.933357 3.98601 1.63075 2.74235 2.87213C1.49869 4.1135 0.800003 5.79717 0.800003 7.55274C0.800003 9.38095 1.54527 11.02 2.74527 12.2304L12.8 22.2667L22.8547 12.2304Z" fill="#EC4899"/>
<g filter="url(#filter1_f_7_892)">
<path fill-rule="evenodd" clip-rule="evenodd" d="M7.14524 27.0409L7.14336 27.0442C7.1116 27.0295 7.05003 26.9931 6.97319 26.9478C6.80612 26.8492 6.59129 26.7497 6.42926 26.6951C5.49137 26.3791 6.18646 25.8558 6.83797 26.5988C6.94062 26.7159 7.00151 26.8195 7.0493 26.9008C7.08459 26.9609 7.11272 27.0087 7.14524 27.0409Z" fill="#EC4899"/>
<path fill-rule="evenodd" clip-rule="evenodd" d="M7.14524 27.0409L7.14336 27.0442C7.1116 27.0295 7.05003 26.9931 6.97319 26.9478C6.80612 26.8492 6.59129 26.7497 6.42926 26.6951C5.49137 26.3791 6.18646 25.8558 6.83797 26.5988C6.94062 26.7159 7.00151 26.8195 7.0493 26.9008C7.08459 26.9609 7.11272 27.0087 7.14524 27.0409Z" fill="#EC4899"/>
<path fill-rule="evenodd" clip-rule="evenodd" d="M18.4548 27.0409L18.4566 27.0442C18.4884 27.0295 18.55 26.9931 18.6268 26.9478C18.7939 26.8492 19.0087 26.7497 19.1707 26.6951C20.1086 26.3791 19.4135 25.8558 18.762 26.5988C18.6594 26.7159 18.5985 26.8195 18.5507 26.9008C18.5154 26.9609 18.4873 27.0087 18.4548 27.0409Z" fill="#EC4899"/>
<path fill-rule="evenodd" clip-rule="evenodd" d="M18.4548 27.0409L18.4566 27.0442C18.4884 27.0295 18.55 26.9931 18.6268 26.9478C18.7939 26.8492 19.0087 26.7497 19.1707 26.6951C20.1086 26.3791 19.4135 25.8558 18.762 26.5988C18.6594 26.7159 18.5985 26.8195 18.5507 26.9008C18.5154 26.9609 18.4873 27.0087 18.4548 27.0409Z" fill="#EC4899"/>
</g>
<g filter="url(#filter2_f_7_892)">
<path d="M24.8 30.6C24.8 31.1523 19.4274 31.6 12.8 31.6C6.17259 31.6 0.800003 31.1523 0.800003 30.6C0.800003 30.0477 6.17259 29.6 12.8 29.6C19.4274 29.6 24.8 30.0477 24.8 30.6Z" stroke="#EC4899" stroke-width="0.3" stroke-miterlimit="1.46628"/>
</g>
<g filter="url(#filter3_f_7_892)">
<path d="M9.8 17.6H16.8L14.3 20.6H12.3L9.8 17.6Z" fill="#EC4899" fill-opacity="0.99"/>
</g>
<g filter="url(#filter4_f_7_892)">
<path d="M5.8 14.6H18.8L15.2545 18.6H10.5273L5.8 14.6Z" fill="#EC4899" fill-opacity="0.99"/>
</g>
<g filter="url(#filter5_f_7_892)">
<path d="M2.3 10.6H22.8L21.8 12.6L19.8 13.6L17.1298 16.3L12.534 16.6L5.38511 14.2L5.3 13.6L4.36383 12.6L2.3 10.6Z" fill="#EC4899" fill-opacity="0.99"/>
</g>
<g filter="url(#filter6_f_7_892)">
<path d="M0.800003 8.60001H24.3L22.3 12.6L19.8 14.6L16.3 18.1L11.8 18.6L5.8 14.6L4.8 13.6L2.3 11.6L0.800003 8.60001Z" fill="#EC4899" fill-opacity="0.99"/>
<path d="M0.800003 8.60001H24.3L22.3 12.6L19.8 14.6L16.3 18.1L11.8 18.6L5.8 14.6L4.8 13.6L2.3 11.6L0.800003 8.60001Z" fill="#EC4899" fill-opacity="0.99"/>
</g>
<defs>
<filter id="filter0_f_7_892" x="0.200003" y="6.07967e-06" width="25.2" height="22.5333" filterUnits="userSpaceOnUse" color-interpolation-filters="sRGB">
<feFlood flood-opacity="0" result="BackgroundImageFix"/>
<feBlend mode="normal" in="SourceGraphic" in2="BackgroundImageFix" result="shape"/>
<feGaussianBlur stdDeviation="0.3" result="effect1_foregroundBlur_7_892"/>
</filter>
<filter id="filter1_f_7_892" x="0.600003" y="14.4" width="24.4" height="24.4" filterUnits="userSpaceOnUse" color-interpolation-filters="sRGB">
<feFlood flood-opacity="0" result="BackgroundImageFix"/>
<feBlend mode="normal" in="SourceGraphic" in2="BackgroundImageFix" result="shape"/>
<feGaussianBlur stdDeviation="0.1" result="effect1_foregroundBlur_7_892"/>
</filter>
<filter id="filter2_f_7_892" x="0.450009" y="29.25" width="24.7" height="2.69999" filterUnits="userSpaceOnUse" color-interpolation-filters="sRGB">
<feFlood flood-opacity="0" result="BackgroundImageFix"/>
<feBlend mode="normal" in="SourceGraphic" in2="BackgroundImageFix" result="shape"/>
<feGaussianBlur stdDeviation="0.1" result="effect1_foregroundBlur_7_892"/>
</filter>
<filter id="filter3_f_7_892" x="9" y="16.8" width="8.6" height="4.6" filterUnits="userSpaceOnUse" color-interpolation-filters="sRGB">
<feFlood flood-opacity="0" result="BackgroundImageFix"/>
<feBlend mode="normal" in="SourceGraphic" in2="BackgroundImageFix" result="shape"/>
<feGaussianBlur stdDeviation="0.4" result="effect1_foregroundBlur_7_892"/>
</filter>
<filter id="filter4_f_7_892" x="5" y="13.8" width="14.6" height="5.6" filterUnits="userSpaceOnUse" color-interpolation-filters="sRGB">
<feFlood flood-opacity="0" result="BackgroundImageFix"/>
<feBlend mode="normal" in="SourceGraphic" in2="BackgroundImageFix" result="shape"/>
<feGaussianBlur stdDeviation="0.4" result="effect1_foregroundBlur_7_892"/>
</filter>
<filter id="filter5_f_7_892" x="1.5" y="9.80001" width="22.1" height="7.6" filterUnits="userSpaceOnUse" color-interpolation-filters="sRGB">
<feFlood flood-opacity="0" result="BackgroundImageFix"/>
<feBlend mode="normal" in="SourceGraphic" in2="BackgroundImageFix" result="shape"/>
<feGaussianBlur stdDeviation="0.4" result="effect1_foregroundBlur_7_892"/>
</filter>
<filter id="filter6_f_7_892" x="3.03984e-06" y="7.80001" width="25.1" height="11.6" filterUnits="userSpaceOnUse" color-interpolation-filters="sRGB">
<feFlood flood-opacity="0" result="BackgroundImageFix"/>
<feBlend mode="normal" in="SourceGraphic" in2="BackgroundImageFix" result="shape"/>
<feGaussianBlur stdDeviation="0.4" result="effect1_foregroundBlur_7_892"/>
</filter>
</defs>
</svg>
