<svg width="26" height="38" viewBox="0 0 26 38" fill="none" xmlns="http://www.w3.org/2000/svg">
<g filter="url(#filter0_f_6_201)">
<path d="M3.42947 17.4019C2.93003 16.9067 2.53432 16.3172 2.26541 15.6678C1.9965 15.0184 1.85976 14.3221 1.86316 13.6194C1.86316 12.1982 2.42876 10.8353 3.43553 9.83034C4.44231 8.82542 5.80778 8.26086 7.23158 8.26086C9.22737 8.26086 10.9705 9.34517 11.8926 10.959H13.3074C13.7761 10.1383 14.4544 9.45624 15.2732 8.98228C16.092 8.50831 17.0219 8.25939 17.9684 8.26086C19.3922 8.26086 20.7577 8.82542 21.7645 9.83034C22.7712 10.8353 23.3368 12.1982 23.3368 13.6194C23.3368 15.0946 22.7053 16.4563 21.7705 17.4019L12.6 26.543L3.42947 17.4019ZM22.6547 18.2971C23.8547 17.0867 24.6 15.4476 24.6 13.6194C24.6 11.8638 23.9013 10.1802 22.6577 8.93879C21.414 7.69742 19.7272 7.00002 17.9684 7.00002C15.7579 7.00002 13.8 8.07173 12.6 9.73603C11.9875 8.88686 11.181 8.19569 10.2473 7.71987C9.31371 7.24404 8.27987 6.99727 7.23158 7.00002C5.47277 7.00002 3.78601 7.69742 2.54234 8.93879C1.29868 10.1802 0.599998 11.8638 0.599998 13.6194C0.599998 15.4476 1.34526 17.0867 2.54526 18.2971L12.6 28.3333L22.6547 18.2971Z" fill="#EC4899"/>
</g>
<path d="M3.42947 17.7352C2.93003 17.24 2.53432 16.6505 2.26541 16.0011C1.9965 15.3517 1.85976 14.6554 1.86316 13.9527C1.86316 12.5316 2.42876 11.1686 3.43553 10.1637C4.44231 9.15874 5.80778 8.59419 7.23158 8.59419C9.22737 8.59419 10.9705 9.6785 11.8926 11.2924H13.3074C13.7761 10.4716 14.4544 9.78957 15.2732 9.3156C16.092 8.84164 17.0219 8.59272 17.9684 8.59419C19.3922 8.59419 20.7577 9.15874 21.7645 10.1637C22.7712 11.1686 23.3368 12.5316 23.3368 13.9527C23.3368 15.4279 22.7053 16.7896 21.7705 17.7352L12.6 26.8763L3.42947 17.7352ZM22.6547 18.6304C23.8547 17.42 24.6 15.7809 24.6 13.9527C24.6 12.1972 23.9013 10.5135 22.6577 9.27212C21.414 8.03075 19.7272 7.33335 17.9684 7.33335C15.7579 7.33335 13.8 8.40506 12.6 10.0694C11.9875 9.22019 11.181 8.52902 10.2473 8.0532C9.31371 7.57737 8.27987 7.3306 7.23158 7.33335C5.47277 7.33335 3.78601 8.03075 2.54234 9.27212C1.29868 10.5135 0.599998 12.1972 0.599998 13.9527C0.599998 15.7809 1.34526 17.42 2.54526 18.6304L12.6 28.6667L22.6547 18.6304Z" fill="#EC4899"/>
<g filter="url(#filter1_f_6_201)">
<path d="M15.1 30C15.1 29.4477 13.9807 29 12.6 29C11.2193 29 10.1 29.4477 10.1 30C10.1 30.5523 11.2193 31 12.6 31C13.9807 31 15.1 30.5523 15.1 30Z" stroke="#EC4899" stroke-width="0.3" stroke-miterlimit="1.46628"/>
</g>
<defs>
<filter id="filter0_f_6_201" x="-1.54972e-06" y="6.4" width="25.2" height="22.5333" filterUnits="userSpaceOnUse" color-interpolation-filters="sRGB">
<feFlood flood-opacity="0" result="BackgroundImageFix"/>
<feBlend mode="normal" in="SourceGraphic" in2="BackgroundImageFix" result="shape"/>
<feGaussianBlur stdDeviation="0.3" result="effect1_foregroundBlur_6_201"/>
</filter>
<filter id="filter1_f_6_201" x="9.75" y="28.65" width="5.7" height="2.69999" filterUnits="userSpaceOnUse" color-interpolation-filters="sRGB">
<feFlood flood-opacity="0" result="BackgroundImageFix"/>
<feBlend mode="normal" in="SourceGraphic" in2="BackgroundImageFix" result="shape"/>
<feGaussianBlur stdDeviation="0.1" result="effect1_foregroundBlur_6_201"/>
</filter>
</defs>
</svg>
