<svg width="26" height="39" viewBox="0 0 26 39" fill="none" xmlns="http://www.w3.org/2000/svg">
<g filter="url(#filter0_f_6_283)">
<path d="M3.42947 11.0019C2.93003 10.5067 2.53432 9.91721 2.26541 9.26781C1.9965 8.61841 1.85976 7.92209 1.86316 7.21941C1.86316 5.79823 2.42876 4.43527 3.43553 3.43034C4.44231 2.42542 5.80778 1.86086 7.23158 1.86086C9.22737 1.86086 10.9705 2.94518 11.8926 4.55905H13.3074C13.7761 3.73832 14.4544 3.05624 15.2732 2.58228C16.092 2.10832 17.0219 1.8594 17.9684 1.86086C19.3922 1.86086 20.7577 2.42542 21.7645 3.43034C22.7712 4.43527 23.3368 5.79823 23.3368 7.21941C23.3368 8.69458 22.7053 10.0563 21.7705 11.0019L12.6 20.143L3.42947 11.0019ZM22.6547 11.8971C23.8547 10.6867 24.6 9.04762 24.6 7.21941C24.6 5.46384 23.9013 3.78017 22.6577 2.5388C21.414 1.29743 19.7272 0.600029 17.9684 0.600029C15.7579 0.600029 13.8 1.67174 12.6 3.33604C11.9875 2.48687 11.181 1.7957 10.2473 1.31987C9.31371 0.844049 8.27987 0.597277 7.23158 0.600029C5.47277 0.600029 3.78601 1.29743 2.54234 2.5388C1.29868 3.78017 0.599998 5.46384 0.599998 7.21941C0.599998 9.04762 1.34526 10.6867 2.54526 11.8971L12.6 21.9333L22.6547 11.8971Z" fill="#EC4899"/>
</g>
<path d="M3.42947 11.3352C2.93003 10.84 2.53432 10.2505 2.26541 9.60114C1.9965 8.95174 1.85976 8.25541 1.86316 7.55274C1.86316 6.13156 2.42876 4.7686 3.43553 3.76367C4.44231 2.75875 5.80778 2.19419 7.23158 2.19419C9.22737 2.19419 10.9705 3.27851 11.8926 4.89238H13.3074C13.7761 4.07165 14.4544 3.38957 15.2732 2.91561C16.092 2.44165 17.0219 2.19273 17.9684 2.19419C19.3922 2.19419 20.7577 2.75875 21.7645 3.76367C22.7712 4.7686 23.3368 6.13156 23.3368 7.55274C23.3368 9.02791 22.7053 10.3896 21.7705 11.3352L12.6 20.4763L3.42947 11.3352ZM22.6547 12.2304C23.8547 11.02 24.6 9.38095 24.6 7.55274C24.6 5.79717 23.9013 4.1135 22.6577 2.87213C21.414 1.63075 19.7272 0.933357 17.9684 0.933357C15.7579 0.933357 13.8 2.00507 12.6 3.66937C11.9875 2.82019 11.181 2.12903 10.2473 1.6532C9.31371 1.17738 8.27987 0.930606 7.23158 0.933357C5.47277 0.933357 3.78601 1.63075 2.54234 2.87213C1.29868 4.1135 0.599998 5.79717 0.599998 7.55274C0.599998 9.38095 1.34526 11.02 2.54526 12.2304L12.6 22.2667L22.6547 12.2304Z" fill="#EC4899"/>
<g filter="url(#filter1_f_6_283)">
<path fill-rule="evenodd" clip-rule="evenodd" d="M4.16352 26.9023L4.16316 26.9062C4.09938 26.903 3.96953 26.8892 3.80748 26.8721C3.45511 26.8348 2.88101 26.8321 2.57234 26.8354C0.785632 26.8547 1.45666 25.92 3.11994 26.4107C3.382 26.488 3.75029 26.7388 3.89388 26.8006C3.99994 26.8462 4.08449 26.8826 4.16352 26.9023Z" fill="#EC4899"/>
<path fill-rule="evenodd" clip-rule="evenodd" d="M4.16352 26.9023L4.16316 26.9062C4.09938 26.903 3.96953 26.8892 3.80748 26.8721C3.45511 26.8348 2.88101 26.8321 2.57234 26.8354C0.785632 26.8547 1.45666 25.92 3.11994 26.4107C3.382 26.488 3.75029 26.7388 3.89388 26.8006C3.99994 26.8462 4.08449 26.8826 4.16352 26.9023Z" fill="#EC4899"/>
<path fill-rule="evenodd" clip-rule="evenodd" d="M7.95285 27.2294L7.95007 27.2344C7.90515 27.2137 7.81831 27.1624 7.70995 27.0983C7.47431 26.9589 7.17053 26.8196 6.9408 26.7444C5.61109 26.3093 6.61879 25.523 7.52712 26.5915C7.67024 26.7598 7.75414 26.9097 7.81998 27.0273C7.8686 27.1141 7.90737 27.1833 7.95285 27.2294Z" fill="#EC4899"/>
<path fill-rule="evenodd" clip-rule="evenodd" d="M7.95285 27.2294L7.95007 27.2344C7.90515 27.2137 7.81831 27.1624 7.70995 27.0983C7.47431 26.9589 7.17053 26.8196 6.9408 26.7444C5.61109 26.3093 6.61879 25.523 7.52712 26.5915C7.67024 26.7598 7.75414 26.9097 7.81998 27.0273C7.8686 27.1141 7.90737 27.1833 7.95285 27.2294Z" fill="#EC4899"/>
<path fill-rule="evenodd" clip-rule="evenodd" d="M11.4177 27.0409L11.4158 27.0442C11.384 27.0295 11.3225 26.9931 11.2456 26.9478C11.0786 26.8492 10.8637 26.7497 10.7017 26.6951C9.76382 26.3791 10.4589 25.8558 11.1104 26.5988C11.2131 26.7159 11.274 26.8195 11.3217 26.9008C11.357 26.9609 11.3852 27.0087 11.4177 27.0409Z" fill="#EC4899"/>
<path fill-rule="evenodd" clip-rule="evenodd" d="M11.4177 27.0409L11.4158 27.0442C11.384 27.0295 11.3225 26.9931 11.2456 26.9478C11.0786 26.8492 10.8637 26.7497 10.7017 26.6951C9.76382 26.3791 10.4589 25.8558 11.1104 26.5988C11.2131 26.7159 11.274 26.8195 11.3217 26.9008C11.357 26.9609 11.3852 27.0087 11.4177 27.0409Z" fill="#EC4899"/>
<path fill-rule="evenodd" clip-rule="evenodd" d="M13.7272 27.0409L13.7291 27.0442C13.7609 27.0295 13.8224 26.9931 13.8993 26.9478C14.0663 26.8492 14.2812 26.7497 14.4432 26.6951C15.3811 26.3791 14.686 25.8558 14.0345 26.5988C13.9318 26.7159 13.8709 26.8195 13.8232 26.9008C13.7879 26.9609 13.7597 27.0087 13.7272 27.0409Z" fill="#EC4899"/>
<path fill-rule="evenodd" clip-rule="evenodd" d="M13.7272 27.0409L13.7291 27.0442C13.7609 27.0295 13.8224 26.9931 13.8993 26.9478C14.0663 26.8492 14.2812 26.7497 14.4432 26.6951C15.3811 26.3791 14.686 25.8558 14.0345 26.5988C13.9318 26.7159 13.8709 26.8195 13.8232 26.9008C13.7879 26.9609 13.7597 27.0087 13.7272 27.0409Z" fill="#EC4899"/>
<path fill-rule="evenodd" clip-rule="evenodd" d="M17.2366 27.2598L17.2399 27.2657C17.2852 27.2457 17.3718 27.1939 17.4799 27.1293C17.7149 26.9888 18.0212 26.854 18.2553 26.7867C19.6106 26.3974 18.4911 25.4112 17.6292 26.5626C17.4934 26.7441 17.418 26.9092 17.3589 27.0387C17.3152 27.1344 17.2804 27.2106 17.2366 27.2598Z" fill="#EC4899"/>
<path fill-rule="evenodd" clip-rule="evenodd" d="M17.2366 27.2598L17.2399 27.2657C17.2852 27.2457 17.3718 27.1939 17.4799 27.1293C17.7149 26.9888 18.0212 26.854 18.2553 26.7867C19.6106 26.3974 18.4911 25.4112 17.6292 26.5626C17.4934 26.7441 17.418 26.9092 17.3589 27.0387C17.3152 27.1344 17.2804 27.2106 17.2366 27.2598Z" fill="#EC4899"/>
<path fill-rule="evenodd" clip-rule="evenodd" d="M21.0365 26.9023L21.0368 26.9062C21.1006 26.903 21.2305 26.8892 21.3925 26.8721C21.7449 26.8348 22.319 26.8321 22.6277 26.8354C24.4144 26.8547 23.7433 25.92 22.0801 26.4107C21.818 26.488 21.4497 26.7388 21.3061 26.8006C21.2001 26.8462 21.1155 26.8826 21.0365 26.9023Z" fill="#EC4899"/>
<path fill-rule="evenodd" clip-rule="evenodd" d="M21.0365 26.9023L21.0368 26.9062C21.1006 26.903 21.2305 26.8892 21.3925 26.8721C21.7449 26.8348 22.319 26.8321 22.6277 26.8354C24.4144 26.8547 23.7433 25.92 22.0801 26.4107C21.818 26.488 21.4497 26.7388 21.3061 26.8006C21.2001 26.8462 21.1155 26.8826 21.0365 26.9023Z" fill="#EC4899"/>
</g>
<g filter="url(#filter2_f_6_283)">
<path d="M24.6 30.6C24.6 31.1523 19.2274 31.6 12.6 31.6C5.97258 31.6 0.599998 31.1523 0.599998 30.6C0.599998 30.0477 5.97258 29.6 12.6 29.6C19.2274 29.6 24.6 30.0477 24.6 30.6Z" stroke="#EC4899" stroke-width="0.3" stroke-miterlimit="1.46628"/>
</g>
<g filter="url(#filter3_f_6_283)">
<ellipse cx="12.6" cy="30.6" rx="7.2" ry="1" stroke="#EC4899" stroke-width="0.3" stroke-miterlimit="1.46628"/>
</g>
<g filter="url(#filter4_f_6_283)">
<ellipse cx="12.6" cy="30.6" rx="9.6" ry="1" stroke="#EC4899" stroke-width="0.3" stroke-miterlimit="1.46628"/>
</g>
<defs>
<filter id="filter0_f_6_283" x="-1.54972e-06" y="6.07967e-06" width="25.2" height="22.5333" filterUnits="userSpaceOnUse" color-interpolation-filters="sRGB">
<feFlood flood-opacity="0" result="BackgroundImageFix"/>
<feBlend mode="normal" in="SourceGraphic" in2="BackgroundImageFix" result="shape"/>
<feGaussianBlur stdDeviation="0.3" result="effect1_foregroundBlur_6_283"/>
</filter>
<filter id="filter1_f_6_283" x="0.399998" y="14.4" width="24.4" height="24.4" filterUnits="userSpaceOnUse" color-interpolation-filters="sRGB">
<feFlood flood-opacity="0" result="BackgroundImageFix"/>
<feBlend mode="normal" in="SourceGraphic" in2="BackgroundImageFix" result="shape"/>
<feGaussianBlur stdDeviation="0.1" result="effect1_foregroundBlur_6_283"/>
</filter>
<filter id="filter2_f_6_283" x="0.249997" y="29.25" width="24.7" height="2.69999" filterUnits="userSpaceOnUse" color-interpolation-filters="sRGB">
<feFlood flood-opacity="0" result="BackgroundImageFix"/>
<feBlend mode="normal" in="SourceGraphic" in2="BackgroundImageFix" result="shape"/>
<feGaussianBlur stdDeviation="0.1" result="effect1_foregroundBlur_6_283"/>
</filter>
<filter id="filter3_f_6_283" x="5.05" y="29.25" width="15.1" height="2.69999" filterUnits="userSpaceOnUse" color-interpolation-filters="sRGB">
<feFlood flood-opacity="0" result="BackgroundImageFix"/>
<feBlend mode="normal" in="SourceGraphic" in2="BackgroundImageFix" result="shape"/>
<feGaussianBlur stdDeviation="0.1" result="effect1_foregroundBlur_6_283"/>
</filter>
<filter id="filter4_f_6_283" x="2.65" y="29.25" width="19.9" height="2.69999" filterUnits="userSpaceOnUse" color-interpolation-filters="sRGB">
<feFlood flood-opacity="0" result="BackgroundImageFix"/>
<feBlend mode="normal" in="SourceGraphic" in2="BackgroundImageFix" result="shape"/>
<feGaussianBlur stdDeviation="0.1" result="effect1_foregroundBlur_6_283"/>
</filter>
</defs>
</svg>
