<svg width="26" height="39" viewBox="0 0 26 39" fill="none" xmlns="http://www.w3.org/2000/svg">
<g filter="url(#filter0_f_6_167)">
<path d="M3.42947 11.0019C2.93003 10.5067 2.53432 9.91721 2.26541 9.26781C1.9965 8.61841 1.85976 7.92209 1.86316 7.21941C1.86316 5.79823 2.42876 4.43527 3.43553 3.43034C4.44231 2.42542 5.80778 1.86086 7.23158 1.86086C9.22737 1.86086 10.9705 2.94518 11.8926 4.55905H13.3074C13.7761 3.73832 14.4544 3.05624 15.2732 2.58228C16.092 2.10832 17.0219 1.8594 17.9684 1.86086C19.3922 1.86086 20.7577 2.42542 21.7645 3.43034C22.7712 4.43527 23.3368 5.79823 23.3368 7.21941C23.3368 8.69458 22.7053 10.0563 21.7705 11.0019L12.6 20.143L3.42947 11.0019ZM22.6547 11.8971C23.8547 10.6867 24.6 9.04762 24.6 7.21941C24.6 5.46384 23.9013 3.78017 22.6577 2.5388C21.414 1.29743 19.7272 0.600029 17.9684 0.600029C15.7579 0.600029 13.8 1.67174 12.6 3.33604C11.9875 2.48687 11.181 1.7957 10.2473 1.31987C9.31371 0.844049 8.27987 0.597277 7.23158 0.600029C5.47277 0.600029 3.78601 1.29743 2.54234 2.5388C1.29868 3.78017 0.599998 5.46384 0.599998 7.21941C0.599998 9.04762 1.34526 10.6867 2.54526 11.8971L12.6 21.9333L22.6547 11.8971Z" fill="#EC4899"/>
</g>
<path d="M3.42947 11.3352C2.93003 10.84 2.53432 10.2505 2.26541 9.60114C1.9965 8.95174 1.85976 8.25541 1.86316 7.55274C1.86316 6.13156 2.42876 4.7686 3.43553 3.76367C4.44231 2.75875 5.80778 2.19419 7.23158 2.19419C9.22737 2.19419 10.9705 3.27851 11.8926 4.89238H13.3074C13.7761 4.07165 14.4544 3.38957 15.2732 2.91561C16.092 2.44165 17.0219 2.19273 17.9684 2.19419C19.3922 2.19419 20.7577 2.75875 21.7645 3.76367C22.7712 4.7686 23.3368 6.13156 23.3368 7.55274C23.3368 9.02791 22.7053 10.3896 21.7705 11.3352L12.6 20.4763L3.42947 11.3352ZM22.6547 12.2304C23.8547 11.02 24.6 9.38095 24.6 7.55274C24.6 5.79717 23.9013 4.1135 22.6577 2.87213C21.414 1.63075 19.7272 0.933357 17.9684 0.933357C15.7579 0.933357 13.8 2.00507 12.6 3.66937C11.9875 2.82019 11.181 2.12903 10.2473 1.6532C9.31371 1.17738 8.27987 0.930606 7.23158 0.933357C5.47277 0.933357 3.78601 1.63075 2.54234 2.87213C1.29868 4.1135 0.599998 5.79717 0.599998 7.55274C0.599998 9.38095 1.34526 11.02 2.54526 12.2304L12.6 22.2667L22.6547 12.2304Z" fill="#EC4899"/>
<g filter="url(#filter1_f_6_167)">
<path d="M24.6 30.6C24.6 31.1523 19.2274 31.6 12.6 31.6C5.97258 31.6 0.599998 31.1523 0.599998 30.6C0.599998 30.0477 5.97258 29.6 12.6 29.6C19.2274 29.6 24.6 30.0477 24.6 30.6Z" stroke="#EC4899" stroke-width="0.3" stroke-miterlimit="1.46628"/>
</g>
<g filter="url(#filter2_f_6_167)">
<ellipse cx="12.6" cy="30.6" rx="7.2" ry="1" stroke="#EC4899" stroke-width="0.3" stroke-miterlimit="1.46628"/>
</g>
<g filter="url(#filter3_f_6_167)">
<ellipse cx="12.6" cy="30.6" rx="9.6" ry="1" stroke="#EC4899" stroke-width="0.3" stroke-miterlimit="1.46628"/>
</g>
<g filter="url(#filter4_f_6_167)">
<path fill-rule="evenodd" clip-rule="evenodd" d="M7.45281 27.2017L7.4494 27.2082C7.40841 27.1926 7.33078 27.1486 7.2339 27.0936C7.02323 26.9742 6.74599 26.8687 6.53213 26.8252C5.29423 26.5737 6.38815 25.4229 7.12609 26.5218C7.24236 26.6949 7.30338 26.8579 7.35126 26.9858C7.38663 27.0803 7.41482 27.1556 7.45281 27.2017Z" fill="#EC4899"/>
<path fill-rule="evenodd" clip-rule="evenodd" d="M7.45281 27.2017L7.4494 27.2082C7.40841 27.1926 7.33078 27.1486 7.2339 27.0936C7.02323 26.9742 6.74599 26.8687 6.53213 26.8252C5.29423 26.5737 6.38815 25.4229 7.12609 26.5218C7.24236 26.6949 7.30338 26.8579 7.35126 26.9858C7.38663 27.0803 7.41482 27.1556 7.45281 27.2017Z" fill="#EC4899"/>
</g>
<g filter="url(#filter5_f_6_167)">
<path fill-rule="evenodd" clip-rule="evenodd" d="M9.99426 27.0994L9.99136 27.1046C9.95878 27.091 9.89739 27.0538 9.82078 27.0073C9.6542 26.9063 9.43375 26.8148 9.2628 26.7748C8.27325 26.543 9.18038 25.6436 9.74769 26.5449C9.83708 26.6869 9.88227 26.8194 9.91774 26.9234C9.94393 27.0002 9.96481 27.0615 9.99426 27.0994Z" fill="#EC4899"/>
<path fill-rule="evenodd" clip-rule="evenodd" d="M9.99426 27.0994L9.99136 27.1046C9.95878 27.091 9.89739 27.0538 9.82078 27.0073C9.6542 26.9063 9.43375 26.8148 9.2628 26.7748C8.27325 26.543 9.18038 25.6436 9.74769 26.5449C9.83708 26.6869 9.88227 26.8194 9.91774 26.9234C9.94393 27.0002 9.96481 27.0615 9.99426 27.0994Z" fill="#EC4899"/>
</g>
<g filter="url(#filter6_f_6_167)">
<path fill-rule="evenodd" clip-rule="evenodd" d="M11.9532 26.8997L11.9514 26.9027C11.9328 26.8942 11.8979 26.8714 11.8543 26.8429C11.7597 26.781 11.6335 26.7237 11.5351 26.6971C10.9655 26.5434 11.5093 26.0392 11.8209 26.5732C11.87 26.6573 11.8937 26.7351 11.9122 26.7961C11.9259 26.8412 11.9369 26.8771 11.9532 26.8997Z" fill="#EC4899"/>
<path fill-rule="evenodd" clip-rule="evenodd" d="M11.9532 26.8997L11.9514 26.9027C11.9328 26.8942 11.8979 26.8714 11.8543 26.8429C11.7597 26.781 11.6335 26.7237 11.5351 26.6971C10.9655 26.5434 11.5093 26.0392 11.8209 26.5732C11.87 26.6573 11.8937 26.7351 11.9122 26.7961C11.9259 26.8412 11.9369 26.8771 11.9532 26.8997Z" fill="#EC4899"/>
</g>
<g filter="url(#filter7_f_6_167)">
<path fill-rule="evenodd" clip-rule="evenodd" d="M13.2468 26.8997L13.2486 26.9027C13.2672 26.8942 13.3021 26.8714 13.3457 26.8429C13.4403 26.781 13.5665 26.7237 13.6649 26.6971C14.2345 26.5434 13.6907 26.0392 13.3791 26.5732C13.33 26.6573 13.3063 26.7351 13.2878 26.7961C13.2741 26.8412 13.2631 26.8771 13.2468 26.8997Z" fill="#EC4899"/>
<path fill-rule="evenodd" clip-rule="evenodd" d="M13.2468 26.8997L13.2486 26.9027C13.2672 26.8942 13.3021 26.8714 13.3457 26.8429C13.4403 26.781 13.5665 26.7237 13.6649 26.6971C14.2345 26.5434 13.6907 26.0392 13.3791 26.5732C13.33 26.6573 13.3063 26.7351 13.2878 26.7961C13.2741 26.8412 13.2631 26.8771 13.2468 26.8997Z" fill="#EC4899"/>
</g>
<g filter="url(#filter8_f_6_167)">
<path fill-rule="evenodd" clip-rule="evenodd" d="M15.2057 27.0994L15.2086 27.1046C15.2412 27.091 15.3026 27.0538 15.3792 27.0073C15.5458 26.9063 15.7662 26.8148 15.9372 26.7748C16.9267 26.543 16.0196 25.6436 15.4523 26.5449C15.3629 26.6869 15.3177 26.8194 15.2823 26.9234C15.2561 27.0002 15.2352 27.0615 15.2057 27.0994Z" fill="#EC4899"/>
<path fill-rule="evenodd" clip-rule="evenodd" d="M15.2057 27.0994L15.2086 27.1046C15.2412 27.091 15.3026 27.0538 15.3792 27.0073C15.5458 26.9063 15.7662 26.8148 15.9372 26.7748C16.9267 26.543 16.0196 25.6436 15.4523 26.5449C15.3629 26.6869 15.3177 26.8194 15.2823 26.9234C15.2561 27.0002 15.2352 27.0615 15.2057 27.0994Z" fill="#EC4899"/>
</g>
<g filter="url(#filter9_f_6_167)">
<path fill-rule="evenodd" clip-rule="evenodd" d="M17.7472 27.2017L17.7506 27.2082C17.7916 27.1926 17.8692 27.1486 17.9661 27.0936C18.1768 26.9742 18.454 26.8687 18.6679 26.8252C19.9058 26.5737 18.8118 25.4229 18.0739 26.5218C17.9576 26.6949 17.8966 26.8579 17.8487 26.9858C17.8134 27.0803 17.7852 27.1556 17.7472 27.2017Z" fill="#EC4899"/>
<path fill-rule="evenodd" clip-rule="evenodd" d="M17.7472 27.2017L17.7506 27.2082C17.7916 27.1926 17.8692 27.1486 17.9661 27.0936C18.1768 26.9742 18.454 26.8687 18.6679 26.8252C19.9058 26.5737 18.8118 25.4229 18.0739 26.5218C17.9576 26.6949 17.8966 26.8579 17.8487 26.9858C17.8134 27.0803 17.7852 27.1556 17.7472 27.2017Z" fill="#EC4899"/>
</g>
<defs>
<filter id="filter0_f_6_167" x="-1.54972e-06" y="6.07967e-06" width="25.2" height="22.5333" filterUnits="userSpaceOnUse" color-interpolation-filters="sRGB">
<feFlood flood-opacity="0" result="BackgroundImageFix"/>
<feBlend mode="normal" in="SourceGraphic" in2="BackgroundImageFix" result="shape"/>
<feGaussianBlur stdDeviation="0.3" result="effect1_foregroundBlur_6_167"/>
</filter>
<filter id="filter1_f_6_167" x="0.249997" y="29.25" width="24.7" height="2.69999" filterUnits="userSpaceOnUse" color-interpolation-filters="sRGB">
<feFlood flood-opacity="0" result="BackgroundImageFix"/>
<feBlend mode="normal" in="SourceGraphic" in2="BackgroundImageFix" result="shape"/>
<feGaussianBlur stdDeviation="0.1" result="effect1_foregroundBlur_6_167"/>
</filter>
<filter id="filter2_f_6_167" x="5.05" y="29.25" width="15.1" height="2.69999" filterUnits="userSpaceOnUse" color-interpolation-filters="sRGB">
<feFlood flood-opacity="0" result="BackgroundImageFix"/>
<feBlend mode="normal" in="SourceGraphic" in2="BackgroundImageFix" result="shape"/>
<feGaussianBlur stdDeviation="0.1" result="effect1_foregroundBlur_6_167"/>
</filter>
<filter id="filter3_f_6_167" x="2.65" y="29.25" width="19.9" height="2.69999" filterUnits="userSpaceOnUse" color-interpolation-filters="sRGB">
<feFlood flood-opacity="0" result="BackgroundImageFix"/>
<feBlend mode="normal" in="SourceGraphic" in2="BackgroundImageFix" result="shape"/>
<feGaussianBlur stdDeviation="0.1" result="effect1_foregroundBlur_6_167"/>
</filter>
<filter id="filter4_f_6_167" x="5.77179" y="25.8546" width="1.88102" height="1.55367" filterUnits="userSpaceOnUse" color-interpolation-filters="sRGB">
<feFlood flood-opacity="0" result="BackgroundImageFix"/>
<feBlend mode="normal" in="SourceGraphic" in2="BackgroundImageFix" result="shape"/>
<feGaussianBlur stdDeviation="0.1" result="effect1_foregroundBlur_6_167"/>
</filter>
<filter id="filter5_f_6_167" x="8.62219" y="25.9519" width="1.57207" height="1.3527" filterUnits="userSpaceOnUse" color-interpolation-filters="sRGB">
<feFlood flood-opacity="0" result="BackgroundImageFix"/>
<feBlend mode="normal" in="SourceGraphic" in2="BackgroundImageFix" result="shape"/>
<feGaussianBlur stdDeviation="0.1" result="effect1_foregroundBlur_6_167"/>
</filter>
<filter id="filter6_f_6_167" x="11.0862" y="26.1338" width="1.06698" height="0.968863" filterUnits="userSpaceOnUse" color-interpolation-filters="sRGB">
<feFlood flood-opacity="0" result="BackgroundImageFix"/>
<feBlend mode="normal" in="SourceGraphic" in2="BackgroundImageFix" result="shape"/>
<feGaussianBlur stdDeviation="0.1" result="effect1_foregroundBlur_6_167"/>
</filter>
<filter id="filter7_f_6_167" x="13.0468" y="26.1338" width="1.06698" height="0.968863" filterUnits="userSpaceOnUse" color-interpolation-filters="sRGB">
<feFlood flood-opacity="0" result="BackgroundImageFix"/>
<feBlend mode="normal" in="SourceGraphic" in2="BackgroundImageFix" result="shape"/>
<feGaussianBlur stdDeviation="0.1" result="effect1_foregroundBlur_6_167"/>
</filter>
<filter id="filter8_f_6_167" x="15.0057" y="25.9519" width="1.57207" height="1.3527" filterUnits="userSpaceOnUse" color-interpolation-filters="sRGB">
<feFlood flood-opacity="0" result="BackgroundImageFix"/>
<feBlend mode="normal" in="SourceGraphic" in2="BackgroundImageFix" result="shape"/>
<feGaussianBlur stdDeviation="0.1" result="effect1_foregroundBlur_6_167"/>
</filter>
<filter id="filter9_f_6_167" x="17.5472" y="25.8546" width="1.88102" height="1.55367" filterUnits="userSpaceOnUse" color-interpolation-filters="sRGB">
<feFlood flood-opacity="0" result="BackgroundImageFix"/>
<feBlend mode="normal" in="SourceGraphic" in2="BackgroundImageFix" result="shape"/>
<feGaussianBlur stdDeviation="0.1" result="effect1_foregroundBlur_6_167"/>
</filter>
</defs>
</svg>
