<svg width="53" height="39" viewBox="0 0 53 39" fill="none" xmlns="http://www.w3.org/2000/svg">
<g filter="url(#filter0_f_7_825)">
<path d="M17.1165 11.0019C16.617 10.5067 16.2213 9.91721 15.9524 9.26781C15.6835 8.61841 15.5468 7.92209 15.5502 7.21941C15.5502 5.79823 16.1158 4.43527 17.1225 3.43034C18.1293 2.42542 19.4948 1.86086 20.9186 1.86086C22.9144 1.86086 24.6575 2.94518 25.5796 4.55905H26.9944C27.4631 3.73832 28.1415 3.05624 28.9602 2.58228C29.779 2.10832 30.7089 1.8594 31.6554 1.86086C33.0792 1.86086 34.4447 2.42542 35.4515 3.43034C36.4582 4.43527 37.0238 5.79823 37.0238 7.21941C37.0238 8.69458 36.3923 10.0563 35.4575 11.0019L26.287 20.143L17.1165 11.0019ZM36.3417 11.8971C37.5417 10.6867 38.287 9.04762 38.287 7.21941C38.287 5.46384 37.5883 3.78017 36.3447 2.5388C35.101 1.29743 33.4142 0.600029 31.6554 0.600029C29.4449 0.600029 27.487 1.67174 26.287 3.33604C25.6745 2.48687 24.868 1.7957 23.9343 1.31987C23.0007 0.844049 21.9669 0.597277 20.9186 0.600029C19.1598 0.600029 17.473 1.29743 16.2293 2.5388C14.9857 3.78017 14.287 5.46384 14.287 7.21941C14.287 9.04762 15.0323 10.6867 16.2323 11.8971L26.287 21.9333L36.3417 11.8971Z" fill="#EC4899"/>
</g>
<path d="M17.1165 11.3352C16.617 10.84 16.2213 10.2505 15.9524 9.60114C15.6835 8.95174 15.5468 8.25541 15.5502 7.55274C15.5502 6.13156 16.1158 4.7686 17.1225 3.76367C18.1293 2.75875 19.4948 2.19419 20.9186 2.19419C22.9144 2.19419 24.6575 3.27851 25.5796 4.89238H26.9944C27.4631 4.07165 28.1415 3.38957 28.9602 2.91561C29.779 2.44165 30.7089 2.19273 31.6554 2.19419C33.0792 2.19419 34.4447 2.75875 35.4515 3.76367C36.4582 4.7686 37.0238 6.13156 37.0238 7.55274C37.0238 9.02791 36.3923 10.3896 35.4575 11.3352L26.287 20.4763L17.1165 11.3352ZM36.3417 12.2304C37.5417 11.02 38.287 9.38095 38.287 7.55274C38.287 5.79717 37.5883 4.1135 36.3447 2.87213C35.101 1.63075 33.4142 0.933357 31.6554 0.933357C29.4449 0.933357 27.487 2.00507 26.287 3.66937C25.6745 2.82019 24.868 2.12903 23.9343 1.6532C23.0007 1.17738 21.9669 0.930606 20.9186 0.933357C19.1598 0.933357 17.473 1.63075 16.2293 2.87213C14.9857 4.1135 14.287 5.79717 14.287 7.55274C14.287 9.38095 15.0323 11.02 16.2323 12.2304L26.287 22.2667L36.3417 12.2304Z" fill="#EC4899"/>
<g filter="url(#filter1_f_7_825)">
<path fill-rule="evenodd" clip-rule="evenodd" d="M2.85053 26.9023L2.85016 26.9062C2.78638 26.903 2.65653 26.8892 2.49448 26.8721C2.14212 26.8348 1.56801 26.8321 1.25934 26.8354C-0.527364 26.8547 0.143661 25.92 1.80694 26.4107C2.06901 26.488 2.4373 26.7388 2.58089 26.8006C2.68694 26.8462 2.7715 26.8826 2.85053 26.9023Z" fill="#EC4899"/>
<path fill-rule="evenodd" clip-rule="evenodd" d="M2.85053 26.9023L2.85016 26.9062C2.78638 26.903 2.65653 26.8892 2.49448 26.8721C2.14212 26.8348 1.56801 26.8321 1.25934 26.8354C-0.527364 26.8547 0.143661 25.92 1.80694 26.4107C2.06901 26.488 2.4373 26.7388 2.58089 26.8006C2.68694 26.8462 2.7715 26.8826 2.85053 26.9023Z" fill="#EC4899"/>
<path fill-rule="evenodd" clip-rule="evenodd" d="M12.6399 27.2294L12.6371 27.2344C12.5922 27.2137 12.5053 27.1624 12.397 27.0983C12.1613 26.9589 11.8575 26.8196 11.6278 26.7444C10.2981 26.3093 11.3058 25.523 12.2141 26.5915C12.3572 26.7598 12.4411 26.9097 12.507 27.0273C12.5556 27.1141 12.5944 27.1833 12.6399 27.2294Z" fill="#EC4899"/>
<path fill-rule="evenodd" clip-rule="evenodd" d="M12.6399 27.2294L12.6371 27.2344C12.5922 27.2137 12.5053 27.1624 12.397 27.0983C12.1613 26.9589 11.8575 26.8196 11.6278 26.7444C10.2981 26.3093 11.3058 25.523 12.2141 26.5915C12.3572 26.7598 12.4411 26.9097 12.507 27.0273C12.5556 27.1141 12.5944 27.1833 12.6399 27.2294Z" fill="#EC4899"/>
<path fill-rule="evenodd" clip-rule="evenodd" d="M22.1047 27.0409L22.1028 27.0442C22.0711 27.0295 22.0095 26.9931 21.9327 26.9478C21.7656 26.8492 21.5507 26.7497 21.3887 26.6951C20.4508 26.3791 21.1459 25.8558 21.7974 26.5988C21.9001 26.7159 21.961 26.8195 22.0088 26.9008C22.044 26.9609 22.0722 27.0087 22.1047 27.0409Z" fill="#EC4899"/>
<path fill-rule="evenodd" clip-rule="evenodd" d="M22.1047 27.0409L22.1028 27.0442C22.0711 27.0295 22.0095 26.9931 21.9327 26.9478C21.7656 26.8492 21.5507 26.7497 21.3887 26.6951C20.4508 26.3791 21.1459 25.8558 21.7974 26.5988C21.9001 26.7159 21.961 26.8195 22.0088 26.9008C22.044 26.9609 22.0722 27.0087 22.1047 27.0409Z" fill="#EC4899"/>
<path fill-rule="evenodd" clip-rule="evenodd" d="M30.4142 27.0409L30.4161 27.0442C30.4479 27.0295 30.5094 26.9931 30.5863 26.9478C30.7533 26.8492 30.9682 26.7497 31.1302 26.6951C32.0681 26.3791 31.373 25.8558 30.7215 26.5988C30.6188 26.7159 30.558 26.8195 30.5102 26.9008C30.4749 26.9609 30.4467 27.0087 30.4142 27.0409Z" fill="#EC4899"/>
<path fill-rule="evenodd" clip-rule="evenodd" d="M30.4142 27.0409L30.4161 27.0442C30.4479 27.0295 30.5094 26.9931 30.5863 26.9478C30.7533 26.8492 30.9682 26.7497 31.1302 26.6951C32.0681 26.3791 31.373 25.8558 30.7215 26.5988C30.6188 26.7159 30.558 26.8195 30.5102 26.9008C30.4749 26.9609 30.4467 27.0087 30.4142 27.0409Z" fill="#EC4899"/>
<path fill-rule="evenodd" clip-rule="evenodd" d="M39.9236 27.2598L39.9269 27.2657C39.9722 27.2457 40.0588 27.1939 40.1669 27.1293C40.4019 26.9888 40.7082 26.854 40.9423 26.7867C42.2976 26.3974 41.1781 25.4112 40.3162 26.5626C40.1804 26.7441 40.105 26.9092 40.0459 27.0387C40.0022 27.1344 39.9674 27.2106 39.9236 27.2598Z" fill="#EC4899"/>
<path fill-rule="evenodd" clip-rule="evenodd" d="M39.9236 27.2598L39.9269 27.2657C39.9722 27.2457 40.0588 27.1939 40.1669 27.1293C40.4019 26.9888 40.7082 26.854 40.9423 26.7867C42.2976 26.3974 41.1781 25.4112 40.3162 26.5626C40.1804 26.7441 40.105 26.9092 40.0459 27.0387C40.0022 27.1344 39.9674 27.2106 39.9236 27.2598Z" fill="#EC4899"/>
<path fill-rule="evenodd" clip-rule="evenodd" d="M49.7235 26.9023L49.7238 26.9062C49.7876 26.903 49.9175 26.8892 50.0795 26.8721C50.4319 26.8348 51.006 26.8321 51.3147 26.8354C53.1014 26.8547 52.4303 25.92 50.7671 26.4107C50.505 26.488 50.1367 26.7388 49.9931 26.8006C49.8871 26.8462 49.8025 26.8826 49.7235 26.9023Z" fill="#EC4899"/>
<path fill-rule="evenodd" clip-rule="evenodd" d="M49.7235 26.9023L49.7238 26.9062C49.7876 26.903 49.9175 26.8892 50.0795 26.8721C50.4319 26.8348 51.006 26.8321 51.3147 26.8354C53.1014 26.8547 52.4303 25.92 50.7671 26.4107C50.505 26.488 50.1367 26.7388 49.9931 26.8006C49.8871 26.8462 49.8025 26.8826 49.7235 26.9023Z" fill="#EC4899"/>
</g>
<g filter="url(#filter2_f_7_825)">
<path d="M38.287 30.6C38.287 31.1523 32.9144 31.6 26.287 31.6C19.6596 31.6 14.287 31.1523 14.287 30.6C14.287 30.0477 19.6596 29.6 26.287 29.6C32.9144 29.6 38.287 30.0477 38.287 30.6Z" stroke="#EC4899" stroke-width="0.3" stroke-miterlimit="1.46628"/>
</g>
<g filter="url(#filter3_f_7_825)">
<ellipse cx="26.287" cy="30.6" rx="7.2" ry="1" stroke="#EC4899" stroke-width="0.3" stroke-miterlimit="1.46628"/>
</g>
<g filter="url(#filter4_f_7_825)">
<ellipse cx="26.287" cy="30.6" rx="9.6" ry="1" stroke="#EC4899" stroke-width="0.3" stroke-miterlimit="1.46628"/>
</g>
<g filter="url(#filter5_f_7_825)">
<path d="M23.287 17.6H30.287L27.787 20.6H25.787L23.287 17.6Z" fill="#EC4899" fill-opacity="0.99"/>
</g>
<defs>
<filter id="filter0_f_7_825" x="13.687" y="6.07967e-06" width="25.2" height="22.5333" filterUnits="userSpaceOnUse" color-interpolation-filters="sRGB">
<feFlood flood-opacity="0" result="BackgroundImageFix"/>
<feBlend mode="normal" in="SourceGraphic" in2="BackgroundImageFix" result="shape"/>
<feGaussianBlur stdDeviation="0.3" result="effect1_foregroundBlur_7_825"/>
</filter>
<filter id="filter1_f_7_825" x="-3.05474e-06" y="14.4" width="52.574" height="24.4" filterUnits="userSpaceOnUse" color-interpolation-filters="sRGB">
<feFlood flood-opacity="0" result="BackgroundImageFix"/>
<feBlend mode="normal" in="SourceGraphic" in2="BackgroundImageFix" result="shape"/>
<feGaussianBlur stdDeviation="0.1" result="effect1_foregroundBlur_7_825"/>
</filter>
<filter id="filter2_f_7_825" x="13.937" y="29.25" width="24.7" height="2.69999" filterUnits="userSpaceOnUse" color-interpolation-filters="sRGB">
<feFlood flood-opacity="0" result="BackgroundImageFix"/>
<feBlend mode="normal" in="SourceGraphic" in2="BackgroundImageFix" result="shape"/>
<feGaussianBlur stdDeviation="0.1" result="effect1_foregroundBlur_7_825"/>
</filter>
<filter id="filter3_f_7_825" x="18.737" y="29.25" width="15.1" height="2.69999" filterUnits="userSpaceOnUse" color-interpolation-filters="sRGB">
<feFlood flood-opacity="0" result="BackgroundImageFix"/>
<feBlend mode="normal" in="SourceGraphic" in2="BackgroundImageFix" result="shape"/>
<feGaussianBlur stdDeviation="0.1" result="effect1_foregroundBlur_7_825"/>
</filter>
<filter id="filter4_f_7_825" x="16.337" y="29.25" width="19.9" height="2.69999" filterUnits="userSpaceOnUse" color-interpolation-filters="sRGB">
<feFlood flood-opacity="0" result="BackgroundImageFix"/>
<feBlend mode="normal" in="SourceGraphic" in2="BackgroundImageFix" result="shape"/>
<feGaussianBlur stdDeviation="0.1" result="effect1_foregroundBlur_7_825"/>
</filter>
<filter id="filter5_f_7_825" x="22.487" y="16.8" width="8.6" height="4.6" filterUnits="userSpaceOnUse" color-interpolation-filters="sRGB">
<feFlood flood-opacity="0" result="BackgroundImageFix"/>
<feBlend mode="normal" in="SourceGraphic" in2="BackgroundImageFix" result="shape"/>
<feGaussianBlur stdDeviation="0.4" result="effect1_foregroundBlur_7_825"/>
</filter>
</defs>
</svg>
