<svg width="26" height="39" viewBox="0 0 26 39" fill="none" xmlns="http://www.w3.org/2000/svg">
<g filter="url(#filter0_f_11_1551)">
<path d="M3.42948 11.0019C2.93004 10.5067 2.53433 9.91721 2.26542 9.26781C1.9965 8.61841 1.85976 7.92209 1.86316 7.21941C1.86316 5.79823 2.42876 4.43527 3.43554 3.43034C4.44231 2.42542 5.80779 1.86086 7.23159 1.86086C9.22737 1.86086 10.9705 2.94518 11.8926 4.55905H13.3074C13.7762 3.73832 14.4545 3.05624 15.2732 2.58228C16.092 2.10832 17.0219 1.8594 17.9684 1.86086C19.3922 1.86086 20.7577 2.42542 21.7645 3.43034C22.7712 4.43527 23.3368 5.79823 23.3368 7.21941C23.3368 8.69458 22.7053 10.0563 21.7705 11.0019L12.6 20.143L3.42948 11.0019ZM22.6547 11.8971C23.8547 10.6867 24.6 9.04762 24.6 7.21941C24.6 5.46384 23.9013 3.78017 22.6577 2.5388C21.414 1.29743 19.7272 0.600029 17.9684 0.600029C15.7579 0.600029 13.8 1.67174 12.6 3.33604C11.9875 2.48687 11.181 1.7957 10.2473 1.31987C9.31371 0.844049 8.27987 0.597277 7.23159 0.600029C5.47278 0.600029 3.78601 1.29743 2.54235 2.5388C1.29869 3.78017 0.600006 5.46384 0.600006 7.21941C0.600006 9.04762 1.34527 10.6867 2.54527 11.8971L12.6 21.9333L22.6547 11.8971Z" fill="#EC4899"/>
</g>
<path d="M3.42948 11.3352C2.93004 10.84 2.53433 10.2505 2.26542 9.60114C1.9965 8.95174 1.85976 8.25541 1.86316 7.55274C1.86316 6.13156 2.42876 4.7686 3.43554 3.76367C4.44231 2.75875 5.80779 2.19419 7.23159 2.19419C9.22737 2.19419 10.9705 3.27851 11.8926 4.89238H13.3074C13.7762 4.07165 14.4545 3.38957 15.2732 2.91561C16.092 2.44165 17.0219 2.19273 17.9684 2.19419C19.3922 2.19419 20.7577 2.75875 21.7645 3.76367C22.7712 4.7686 23.3368 6.13156 23.3368 7.55274C23.3368 9.02791 22.7053 10.3896 21.7705 11.3352L12.6 20.4763L3.42948 11.3352ZM22.6547 12.2304C23.8547 11.02 24.6 9.38095 24.6 7.55274C24.6 5.79717 23.9013 4.1135 22.6577 2.87213C21.414 1.63075 19.7272 0.933357 17.9684 0.933357C15.7579 0.933357 13.8 2.00507 12.6 3.66937C11.9875 2.82019 11.181 2.12903 10.2473 1.6532C9.31371 1.17738 8.27987 0.930606 7.23159 0.933357C5.47278 0.933357 3.78601 1.63075 2.54235 2.87213C1.29869 4.1135 0.600006 5.79717 0.600006 7.55274C0.600006 9.38095 1.34527 11.02 2.54527 12.2304L12.6 22.2667L22.6547 12.2304Z" fill="#EC4899"/>
<path d="M12.7855 18.3372C12.8286 18.3372 12.894 18.2509 12.9486 18.1525C13.0416 17.9849 12.8077 18.5327 12.6992 18.6307C12.4237 18.8797 11.9801 18.3385 11.6428 17.9682C11.3969 17.6983 11.2388 17.4233 11.0757 17.1615C10.8991 16.8779 10.6949 16.6389 10.4874 16.3771C10.2316 16.0545 9.97585 15.7015 9.77908 15.4076C9.58861 15.1232 9.43066 14.8085 9.20186 14.5467C8.99066 14.305 8.84232 14.024 8.65699 13.7622C8.55487 13.618 8.40629 13.522 8.32981 13.4998C8.06245 13.4221 8.60045 14.0214 8.67791 14.2832C8.71603 14.4121 8.75407 14.5451 8.8299 14.6431C8.86885 14.6935 8.97044 14.6764 9.03647 14.7088C9.10249 14.7412 9.14564 14.8059 9.16786 14.8716C9.19009 14.9373 9.19009 15.002 9.16852 15.0677C9.14695 15.1334 9.1038 15.1981 9.04922 15.2422C8.77838 15.4612 8.27621 15.2439 8.0144 15.1886C7.75194 15.1333 7.55713 14.8516 7.36036 14.6121C7.16791 14.3777 7.03416 14.0463 6.82661 13.773C6.64921 13.5395 6.44582 13.2618 6.1948 12.9235C5.98022 12.6343 5.76989 12.3244 5.54109 12.0626C5.32137 11.8112 5.02989 11.4968 4.8109 11.2128C4.61116 10.9537 4.3971 10.6901 4.14673 10.396C3.80303 9.99213 3.61265 9.70957 3.48158 9.44776C3.31546 9.11593 3.06746 8.85975 2.99097 8.59794C2.91007 8.32099 2.84912 7.96678 2.78408 7.68275C2.72247 7.41374 2.60986 7.16011 2.61999 6.50771C2.62691 6.06258 3.04392 5.80955 3.30573 5.59055C3.55665 5.38068 3.82837 5.17676 4.0794 4.92639C4.33913 4.66733 4.48208 4.39231 4.76547 4.27202C5.12446 4.11965 5.39727 4.06545 5.83264 3.84744C6.15509 3.68597 6.44321 3.71637 6.73738 3.63989C7.15046 3.53249 8.50239 3.5634 9.49341 3.69349C9.90975 3.74814 10.1693 4.15043 10.4527 4.29294C10.849 4.49223 11.1499 4.71785 11.3251 4.946C11.5348 5.21902 11.4781 5.58859 11.5974 5.91545C11.7127 6.23145 11.8036 6.67636 11.9353 7.09212C12.0426 7.43074 12.0873 7.78898 12.1641 8.21356C12.2984 8.9558 12.3933 9.24936 12.5668 9.57621C12.7417 9.90554 12.7855 10.2299 12.894 10.7088C12.9773 11.0761 13.047 11.6014 13.1771 12.2009C13.3418 12.9601 13.5046 13.5638 13.7324 14.0427C13.8738 14.3399 13.9399 14.6529 13.9406 15.7508C13.9409 16.2195 13.766 16.4624 13.7337 16.6039C13.6647 16.9056 12.962 16.5735 12.4822 16.3767C12.1177 16.2273 11.8062 16.1591 11.5009 15.9195C11.2328 15.709 11.1081 15.3968 10.9558 15.0808C10.8836 14.9311 10.8244 14.6784 10.8675 14.3627C10.8959 14.1551 11.1506 14.1319 11.2594 14.0561C11.3168 14.0161 11.3251 13.9155 11.3146 13.8387C11.2458 13.3329 10.8897 12.7166 10.7812 12.4548C10.6537 12.1472 10.6282 11.7361 10.4982 11.2464C10.3785 10.796 10.2805 10.3201 10.2252 10.0361C10.1652 9.72756 10.1053 8.95127 10.0402 8.4672C9.99981 8.16634 9.75751 7.87919 9.47445 7.18331C9.31184 6.78353 9.08157 6.5064 8.86422 6.24459C8.64632 5.98214 8.29843 5.93898 7.90588 5.85171C7.75095 5.81727 7.49241 5.78601 7.1551 5.80759C6.72592 5.83503 6.51119 6.35082 6.3579 6.62407C6.21582 6.87732 5.85749 6.91824 5.62803 7.0493C5.33738 7.21533 5.46395 7.8112 5.5071 8.02889C5.57419 8.3674 6.05098 8.31325 6.32358 8.45478C6.61383 8.60547 6.74914 8.90028 6.90146 9.18432C7.05467 9.47002 7.38063 9.77102 7.44665 10.2623C7.48983 10.5836 7.81665 10.645 7.92549 10.7101C8.16203 10.8514 8.05656 11.2111 8.10036 11.2553C8.36743 11.5243 7.73101 10.43 7.56726 10.0472C7.44999 9.77312 7.35971 9.47031 7.29466 9.13202C7.24166 8.85635 7.27211 8.59827 7.31591 8.22794C7.33538 8.06329 7.44665 7.9439 7.54405 7.85663C7.91741 7.52212 8.4697 8.18251 9.01359 8.595C9.47748 8.94682 9.47249 9.3801 9.63625 9.6527C9.82092 9.96012 9.88694 10.3816 10.0177 10.6878C10.1689 11.0422 10.4308 11.6236 10.5626 12.0927C10.679 12.5073 11.0623 13.1049 11.227 13.4985C11.4877 14.1211 12.6286 14.8268 13.1002 15.1115C13.4186 15.3036 13.8079 15.6126 14.0377 15.8521C14.16 15.9797 14.2884 16.0924 14.408 16.1901C14.5276 16.2878 14.5505 16.635 14.5829 17.0164C14.5936 17.1427 14.6799 17.1174 14.7456 17.0847C15.0171 16.9496 15.1598 16.5094 15.3343 16.181C15.4941 15.8803 15.8135 15.6583 16.053 15.5158C16.3286 15.3519 16.4894 15.0268 16.6309 14.7428C16.7594 14.485 16.9248 14.2202 17.1101 13.9691C17.3133 13.6939 17.6438 13.5011 17.8184 13.2393C17.9929 12.9775 18.21 12.7166 18.4826 12.5199C18.7755 12.3084 19.1029 12.1714 19.4412 11.8776C19.7326 11.6245 19.975 11.3438 20.1283 11.082C20.3004 10.788 20.6065 10.5162 20.8254 10.2322C21.0176 9.98302 21.1739 9.62328 21.3376 9.31702C21.4695 9.07038 21.523 8.79438 21.621 8.53257C21.6467 8.46385 21.6968 8.40215 21.7514 8.36881C21.806 8.33548 21.8707 8.33548 21.9149 8.36783C22.0094 8.43715 22.0028 8.63945 21.992 8.75973C21.965 9.06049 21.872 8.03215 21.807 7.67229C21.7891 7.5731 21.7635 7.46604 21.7632 7.44284C21.7589 7.13742 21.7635 8.31194 21.687 8.48812C21.5219 8.86857 21.6105 7.68438 21.6429 7.28137C21.6547 7.13411 21.74 7.11566 21.8057 7.09376C21.8714 7.07186 21.9361 7.05028 21.9802 7.07153C22.0243 7.09278 22.0459 7.15749 22.0247 7.12611C21.752 6.72341 21.7413 6.20177 21.6762 5.91773C21.5958 5.56666 21.0471 5.11269 20.7071 4.86069C20.4424 4.66443 20.3476 4.28379 20.1515 4.02198C19.9263 3.72143 19.5854 3.67323 19.2693 3.56373C18.9985 3.46993 18.6924 3.43266 18.4084 3.36762C18.1193 3.30143 17.2595 3.23655 16.7087 3.35585C16.3991 3.42291 16.1207 3.71506 15.8589 3.8896C15.5971 4.06414 15.3363 4.28118 14.9875 4.6515C14.7461 4.90783 14.5518 5.26174 14.4201 5.52355C14.2927 5.77683 14.2021 5.98147 14.137 6.09031C14.0721 6.19897 13.7464 6.17824 13.3872 6.2106C13.2407 6.22379 13.179 6.30767 13.1457 6.5028C13.0581 7.01517 13.1555 7.41963 13.2316 7.55004C13.3029 7.67213 13.3732 7.76871 13.5036 7.82297C13.6429 7.88092 13.8301 7.94325 14.0586 7.93246C14.3967 7.9165 14.6799 7.55233 15.7014 6.86725C16.1119 6.59189 16.3573 6.35343 16.6522 6.18968C17.0105 5.99062 17.4909 6.06972 18.0456 6.06907C18.5124 6.06852 18.8414 6.3299 19.1255 6.45018C19.4097 6.57053 19.6481 6.78749 19.7798 7.09212C19.9144 7.40322 19.652 8.28449 19.4105 8.90061C19.1939 9.4531 18.8441 9.64158 18.5502 9.88182C18.3081 10.0798 17.887 10.3384 17.6128 10.6009C17.3577 10.845 17.0568 11.1451 16.8502 11.4069C16.6058 11.7167 16.2514 12.0172 15.4905 12.3329C15.3196 12.4038 15.2277 12.3885 15.1617 12.3561C14.891 12.2234 14.6185 11.4354 14.4201 10.897C14.3689 10.7581 14.376 10.6025 14.4626 10.4394C14.6531 10.0807 15.1584 10.1449 15.6383 9.72101C16.0639 9.34498 16.292 8.83883 16.5868 8.54335C16.8459 8.28367 17.3366 8.2701 17.805 8.30246C17.9741 8.31414 17.9929 8.39954 18.004 8.63782C18.058 9.79454 17.5602 10.2286 17.0147 10.915C16.6354 11.3922 16.4685 11.7335 16.3054 12.006C16.0893 12.3671 15.7939 12.6486 15.4559 13.019C15.3858 13.0958 15.4003 13.1716 15.4003 13.151C15.4003 12.7598 15.7677 11.5047 16.0968 10.6362C16.2717 10.175 16.5103 9.7318 16.7179 9.30689C17.0535 8.61978 17.5785 7.90141 17.7746 7.51997C18.0695 6.9464 18.4061 6.52863 18.5921 6.2338C18.7875 5.92391 18.9081 5.65592 18.9735 5.59023C19.1111 5.4519 18.8009 6.17562 18.6584 6.50411C18.5237 6.81458 18.2126 7.04898 17.9073 7.2343C17.4673 7.50143 16.9274 8.11583 16.4263 8.49759C16.2514 8.61788 16.1201 8.72705 15.9789 8.84668C15.9024 8.90159 15.8161 8.94473 15.6618 9.11993" stroke="#EC4899" stroke-width="3" stroke-linecap="round"/>
<defs>
<filter id="filter0_f_11_1551" x="6.07967e-06" y="6.07967e-06" width="25.2" height="22.5333" filterUnits="userSpaceOnUse" color-interpolation-filters="sRGB">
<feFlood flood-opacity="0" result="BackgroundImageFix"/>
<feBlend mode="normal" in="SourceGraphic" in2="BackgroundImageFix" result="shape"/>
<feGaussianBlur stdDeviation="0.3" result="effect1_foregroundBlur_11_1551"/>
</filter>
</defs>
</svg>
