<svg width="38" height="39" viewBox="0 0 38 39" fill="none" xmlns="http://www.w3.org/2000/svg">
<g filter="url(#filter0_f_7_768)">
<path d="M9.61648 11.0019C9.11703 10.5067 8.72133 9.91721 8.45241 9.26781C8.1835 8.61841 8.04676 7.92209 8.05016 7.21941C8.05016 5.79823 8.61576 4.43527 9.62253 3.43034C10.6293 2.42542 11.9948 1.86086 13.4186 1.86086C15.4144 1.86086 17.1575 2.94518 18.0796 4.55905H19.4944C19.9631 3.73832 20.6415 3.05624 21.4602 2.58228C22.279 2.10832 23.2089 1.8594 24.1554 1.86086C25.5792 1.86086 26.9447 2.42542 27.9515 3.43034C28.9582 4.43527 29.5238 5.79823 29.5238 7.21941C29.5238 8.69458 28.8923 10.0563 27.9575 11.0019L18.787 20.143L9.61648 11.0019ZM28.8417 11.8971C30.0417 10.6867 30.787 9.04762 30.787 7.21941C30.787 5.46384 30.0883 3.78017 28.8447 2.5388C27.601 1.29743 25.9142 0.600029 24.1554 0.600029C21.9449 0.600029 19.987 1.67174 18.787 3.33604C18.1745 2.48687 17.368 1.7957 16.4343 1.31987C15.5007 0.844049 14.4669 0.597277 13.4186 0.600029C11.6598 0.600029 9.97301 1.29743 8.72935 2.5388C7.48568 3.78017 6.787 5.46384 6.787 7.21941C6.787 9.04762 7.53227 10.6867 8.73227 11.8971L18.787 21.9333L28.8417 11.8971Z" fill="#EC4899"/>
</g>
<path d="M9.61648 11.3352C9.11703 10.84 8.72133 10.2505 8.45241 9.60114C8.1835 8.95174 8.04676 8.25541 8.05016 7.55274C8.05016 6.13156 8.61576 4.7686 9.62253 3.76367C10.6293 2.75875 11.9948 2.19419 13.4186 2.19419C15.4144 2.19419 17.1575 3.27851 18.0796 4.89238H19.4944C19.9631 4.07165 20.6415 3.38957 21.4602 2.91561C22.279 2.44165 23.2089 2.19273 24.1554 2.19419C25.5792 2.19419 26.9447 2.75875 27.9515 3.76367C28.9582 4.7686 29.5238 6.13156 29.5238 7.55274C29.5238 9.02791 28.8923 10.3896 27.9575 11.3352L18.787 20.4763L9.61648 11.3352ZM28.8417 12.2304C30.0417 11.02 30.787 9.38095 30.787 7.55274C30.787 5.79717 30.0883 4.1135 28.8447 2.87213C27.601 1.63075 25.9142 0.933357 24.1554 0.933357C21.9449 0.933357 19.987 2.00507 18.787 3.66937C18.1745 2.82019 17.368 2.12903 16.4343 1.6532C15.5007 1.17738 14.4669 0.930606 13.4186 0.933357C11.6598 0.933357 9.97301 1.63075 8.72935 2.87213C7.48568 4.1135 6.787 5.79717 6.787 7.55274C6.787 9.38095 7.53227 11.02 8.73227 12.2304L18.787 22.2667L28.8417 12.2304Z" fill="#EC4899"/>
<g filter="url(#filter1_f_7_768)">
<path fill-rule="evenodd" clip-rule="evenodd" d="M2.85053 26.9023L2.85016 26.9062C2.78638 26.903 2.65653 26.8892 2.49448 26.8721C2.14212 26.8348 1.56801 26.8321 1.25934 26.8354C-0.527364 26.8547 0.143661 25.92 1.80694 26.4107C2.06901 26.488 2.4373 26.7388 2.58089 26.8006C2.68694 26.8462 2.7715 26.8826 2.85053 26.9023Z" fill="#EC4899"/>
<path fill-rule="evenodd" clip-rule="evenodd" d="M2.85053 26.9023L2.85016 26.9062C2.78638 26.903 2.65653 26.8892 2.49448 26.8721C2.14212 26.8348 1.56801 26.8321 1.25934 26.8354C-0.527364 26.8547 0.143661 25.92 1.80694 26.4107C2.06901 26.488 2.4373 26.7388 2.58089 26.8006C2.68694 26.8462 2.7715 26.8826 2.85053 26.9023Z" fill="#EC4899"/>
<path fill-rule="evenodd" clip-rule="evenodd" d="M9.63986 27.2294L9.63707 27.2344C9.59215 27.2137 9.50532 27.1624 9.39695 27.0983C9.16132 26.9589 8.85753 26.8196 8.62781 26.7444C7.29809 26.3093 8.30579 25.523 9.21413 26.5915C9.35724 26.7598 9.44115 26.9097 9.50698 27.0273C9.5556 27.1141 9.59437 27.1833 9.63986 27.2294Z" fill="#EC4899"/>
<path fill-rule="evenodd" clip-rule="evenodd" d="M9.63986 27.2294L9.63707 27.2344C9.59215 27.2137 9.50532 27.1624 9.39695 27.0983C9.16132 26.9589 8.85753 26.8196 8.62781 26.7444C7.29809 26.3093 8.30579 25.523 9.21413 26.5915C9.35724 26.7598 9.44115 26.9097 9.50698 27.0273C9.5556 27.1141 9.59437 27.1833 9.63986 27.2294Z" fill="#EC4899"/>
<path fill-rule="evenodd" clip-rule="evenodd" d="M16.1047 27.0409L16.1028 27.0442C16.0711 27.0295 16.0095 26.9931 15.9327 26.9478C15.7656 26.8492 15.5507 26.7497 15.3887 26.6951C14.4508 26.3791 15.1459 25.8558 15.7974 26.5988C15.9001 26.7159 15.961 26.8195 16.0088 26.9008C16.044 26.9609 16.0722 27.0087 16.1047 27.0409Z" fill="#EC4899"/>
<path fill-rule="evenodd" clip-rule="evenodd" d="M16.1047 27.0409L16.1028 27.0442C16.0711 27.0295 16.0095 26.9931 15.9327 26.9478C15.7656 26.8492 15.5507 26.7497 15.3887 26.6951C14.4508 26.3791 15.1459 25.8558 15.7974 26.5988C15.9001 26.7159 15.961 26.8195 16.0088 26.9008C16.044 26.9609 16.0722 27.0087 16.1047 27.0409Z" fill="#EC4899"/>
<path fill-rule="evenodd" clip-rule="evenodd" d="M21.4142 27.0409L21.4161 27.0442C21.4479 27.0295 21.5094 26.9931 21.5863 26.9478C21.7533 26.8492 21.9682 26.7497 22.1302 26.6951C23.0681 26.3791 22.373 25.8558 21.7215 26.5988C21.6188 26.7159 21.558 26.8195 21.5102 26.9008C21.4749 26.9609 21.4467 27.0087 21.4142 27.0409Z" fill="#EC4899"/>
<path fill-rule="evenodd" clip-rule="evenodd" d="M21.4142 27.0409L21.4161 27.0442C21.4479 27.0295 21.5094 26.9931 21.5863 26.9478C21.7533 26.8492 21.9682 26.7497 22.1302 26.6951C23.0681 26.3791 22.373 25.8558 21.7215 26.5988C21.6188 26.7159 21.558 26.8195 21.5102 26.9008C21.4749 26.9609 21.4467 27.0087 21.4142 27.0409Z" fill="#EC4899"/>
<path fill-rule="evenodd" clip-rule="evenodd" d="M27.9236 27.2598L27.9269 27.2657C27.9722 27.2457 28.0588 27.1939 28.1669 27.1293C28.4019 26.9888 28.7082 26.854 28.9423 26.7867C30.2976 26.3974 29.1781 25.4112 28.3162 26.5626C28.1804 26.7441 28.105 26.9092 28.0459 27.0387C28.0022 27.1344 27.9674 27.2106 27.9236 27.2598Z" fill="#EC4899"/>
<path fill-rule="evenodd" clip-rule="evenodd" d="M27.9236 27.2598L27.9269 27.2657C27.9722 27.2457 28.0588 27.1939 28.1669 27.1293C28.4019 26.9888 28.7082 26.854 28.9423 26.7867C30.2976 26.3974 29.1781 25.4112 28.3162 26.5626C28.1804 26.7441 28.105 26.9092 28.0459 27.0387C28.0022 27.1344 27.9674 27.2106 27.9236 27.2598Z" fill="#EC4899"/>
<path fill-rule="evenodd" clip-rule="evenodd" d="M34.7235 26.9023L34.7238 26.9062C34.7876 26.903 34.9175 26.8892 35.0795 26.8721C35.4319 26.8348 36.006 26.8321 36.3147 26.8354C38.1014 26.8547 37.4303 25.92 35.7671 26.4107C35.505 26.488 35.1367 26.7388 34.9931 26.8006C34.8871 26.8462 34.8025 26.8826 34.7235 26.9023Z" fill="#EC4899"/>
<path fill-rule="evenodd" clip-rule="evenodd" d="M34.7235 26.9023L34.7238 26.9062C34.7876 26.903 34.9175 26.8892 35.0795 26.8721C35.4319 26.8348 36.006 26.8321 36.3147 26.8354C38.1014 26.8547 37.4303 25.92 35.7671 26.4107C35.505 26.488 35.1367 26.7388 34.9931 26.8006C34.8871 26.8462 34.8025 26.8826 34.7235 26.9023Z" fill="#EC4899"/>
</g>
<g filter="url(#filter2_f_7_768)">
<path d="M30.787 30.6C30.787 31.1523 25.4144 31.6 18.787 31.6C12.1596 31.6 6.787 31.1523 6.787 30.6C6.787 30.0477 12.1596 29.6 18.787 29.6C25.4144 29.6 30.787 30.0477 30.787 30.6Z" stroke="#EC4899" stroke-width="0.3" stroke-miterlimit="1.46628"/>
</g>
<g filter="url(#filter3_f_7_768)">
<ellipse cx="18.787" cy="30.6" rx="7.2" ry="1" stroke="#EC4899" stroke-width="0.3" stroke-miterlimit="1.46628"/>
</g>
<g filter="url(#filter4_f_7_768)">
<ellipse cx="18.787" cy="30.6" rx="9.6" ry="1" stroke="#EC4899" stroke-width="0.3" stroke-miterlimit="1.46628"/>
</g>
<defs>
<filter id="filter0_f_7_768" x="6.187" y="6.07967e-06" width="25.2" height="22.5333" filterUnits="userSpaceOnUse" color-interpolation-filters="sRGB">
<feFlood flood-opacity="0" result="BackgroundImageFix"/>
<feBlend mode="normal" in="SourceGraphic" in2="BackgroundImageFix" result="shape"/>
<feGaussianBlur stdDeviation="0.3" result="effect1_foregroundBlur_7_768"/>
</filter>
<filter id="filter1_f_7_768" x="-3.05474e-06" y="14.4" width="37.574" height="24.4" filterUnits="userSpaceOnUse" color-interpolation-filters="sRGB">
<feFlood flood-opacity="0" result="BackgroundImageFix"/>
<feBlend mode="normal" in="SourceGraphic" in2="BackgroundImageFix" result="shape"/>
<feGaussianBlur stdDeviation="0.1" result="effect1_foregroundBlur_7_768"/>
</filter>
<filter id="filter2_f_7_768" x="6.437" y="29.25" width="24.7" height="2.69999" filterUnits="userSpaceOnUse" color-interpolation-filters="sRGB">
<feFlood flood-opacity="0" result="BackgroundImageFix"/>
<feBlend mode="normal" in="SourceGraphic" in2="BackgroundImageFix" result="shape"/>
<feGaussianBlur stdDeviation="0.1" result="effect1_foregroundBlur_7_768"/>
</filter>
<filter id="filter3_f_7_768" x="11.237" y="29.25" width="15.1" height="2.69999" filterUnits="userSpaceOnUse" color-interpolation-filters="sRGB">
<feFlood flood-opacity="0" result="BackgroundImageFix"/>
<feBlend mode="normal" in="SourceGraphic" in2="BackgroundImageFix" result="shape"/>
<feGaussianBlur stdDeviation="0.1" result="effect1_foregroundBlur_7_768"/>
</filter>
<filter id="filter4_f_7_768" x="8.837" y="29.25" width="19.9" height="2.69999" filterUnits="userSpaceOnUse" color-interpolation-filters="sRGB">
<feFlood flood-opacity="0" result="BackgroundImageFix"/>
<feBlend mode="normal" in="SourceGraphic" in2="BackgroundImageFix" result="shape"/>
<feGaussianBlur stdDeviation="0.1" result="effect1_foregroundBlur_7_768"/>
</filter>
</defs>
</svg>
