<svg width="24" height="21" viewBox="0 0 24 21" fill="none" xmlns="http://www.w3.org/2000/svg">
<path d="M11.625 3.875C11.625 3.875 11.625 3.875 12.6067 2.58333C13.7433 1.085 15.4225 0 17.4375 0C20.6537 0 23.25 2.59625 23.25 5.8125C23.25 7.01375 22.8883 8.12458 22.2683 9.04167C21.2221 10.6046 11.625 20.6667 11.625 20.6667C11.625 20.6667 2.02792 10.6046 0.981667 9.04167C0.361667 8.12458 0 7.01375 0 5.8125C0 2.59625 2.59625 0 5.8125 0C7.8275 0 9.51958 1.085 10.6433 2.58333C11.625 3.875 11.625 3.875 11.625 3.875Z" fill="#EC4899"/>
</svg>
