<svg width="21" height="21" viewBox="0 0 21 21" fill="none" xmlns="http://www.w3.org/2000/svg">
<path d="M11.1562 14.4375V9.1875H8.53125V10.5H9.84375V14.4375H7.875V15.75H13.125V14.4375H11.1562ZM10.5 5.25C10.3053 5.25 10.115 5.30773 9.95311 5.4159C9.79123 5.52406 9.66506 5.6778 9.59056 5.85767C9.51605 6.03754 9.49656 6.23547 9.53454 6.42642C9.57252 6.61737 9.66627 6.79277 9.80394 6.93043C9.94161 7.0681 10.117 7.16185 10.308 7.19984C10.4989 7.23782 10.6968 7.21832 10.8767 7.14382C11.0566 7.06931 11.2103 6.94314 11.3185 6.78126C11.4266 6.61938 11.4844 6.42907 11.4844 6.23438C11.4844 5.9733 11.3807 5.72292 11.1961 5.53832C11.0115 5.35371 10.7611 5.25 10.5 5.25Z" fill="#65676B"/>
<path d="M10.5 19.6875C8.68289 19.6875 6.90658 19.1487 5.3957 18.1391C3.88483 17.1296 2.70724 15.6947 2.01186 14.0159C1.31648 12.3371 1.13454 10.4898 1.48904 8.70761C1.84354 6.92541 2.71857 5.28836 4.00346 4.00346C5.28836 2.71857 6.92541 1.84354 8.70761 1.48904C10.4898 1.13454 12.3371 1.31648 14.0159 2.01186C15.6947 2.70724 17.1296 3.88483 18.1391 5.3957C19.1487 6.90658 19.6875 8.68289 19.6875 10.5C19.6875 12.9367 18.7195 15.2736 16.9965 16.9965C15.2736 18.7195 12.9367 19.6875 10.5 19.6875ZM10.5 2.625C8.94248 2.625 7.41993 3.08686 6.12489 3.95218C4.82985 4.8175 3.82049 6.0474 3.22445 7.48637C2.62841 8.92534 2.47246 10.5087 2.77632 12.0363C3.08018 13.5639 3.8302 14.9671 4.93154 16.0685C6.03288 17.1698 7.43607 17.9198 8.96367 18.2237C10.4913 18.5275 12.0747 18.3716 13.5136 17.7756C14.9526 17.1795 16.1825 16.1702 17.0478 14.8751C17.9131 13.5801 18.375 12.0575 18.375 10.5C18.375 8.41142 17.5453 6.40839 16.0685 4.93154C14.5916 3.45469 12.5886 2.625 10.5 2.625Z" fill="#65676B"/>
</svg>
