<svg width="29" height="29" viewBox="0 0 29 29" fill="none" xmlns="http://www.w3.org/2000/svg">
<path d="M3.92709 11.1771H25.0729M8.89455 5.7396V3.32294M20.0716 5.7396V3.32294M20.8438 5.7396H8.15626C7.03462 5.7396 5.95891 6.18518 5.16579 6.9783C4.37267 7.77142 3.92709 8.84713 3.92709 9.96877V21.4479C3.92709 22.5696 4.37267 23.6453 5.16579 24.4384C5.95891 25.2315 7.03462 25.6771 8.15626 25.6771H20.8438C21.9654 25.6771 23.0411 25.2315 23.8342 24.4384C24.6274 23.6453 25.0729 22.5696 25.0729 21.4479V9.96877C25.0729 8.84713 24.6274 7.77142 23.8342 6.9783C23.0411 6.18518 21.9654 5.7396 20.8438 5.7396Z" stroke="#65676B" stroke-width="1.5" stroke-linecap="round" stroke-linejoin="round"/>
</svg>
