<svg width="18" height="18" viewBox="0 0 18 18" fill="none" xmlns="http://www.w3.org/2000/svg">
<path opacity="0.61" d="M9.00119 17C10.7762 16.9997 12.5008 16.4091 13.9033 15.3212C15.3058 14.2333 16.3067 12.7098 16.7484 10.9906C17.1901 9.27135 17.0474 7.45408 16.3429 5.82484C15.6384 4.1956 14.4121 2.84693 12.8569 1.99116C11.3018 1.13538 9.50626 0.821109 7.75292 1.09781C5.99959 1.37451 4.38807 2.22647 3.17208 3.51957C1.95608 4.81266 1.20467 6.47345 1.03615 8.24046C0.867622 10.0075 1.29155 11.7804 2.24119 13.28L1.00119 17L4.72119 15.76C6.00081 16.5721 7.4856 17.0023 9.00119 17Z" stroke="#4211D3" stroke-width="2" stroke-linecap="round" stroke-linejoin="round"/>
</svg>
