<svg width="19" height="19" viewBox="0 0 19 19" fill="none" xmlns="http://www.w3.org/2000/svg">
<path d="M15.9351 12.2559V15.7709C15.9349 16.2683 15.7372 16.7452 15.3855 17.0968C15.0339 17.4485 14.557 17.6462 14.0596 17.6464H4.87549C4.6283 17.6463 4.38356 17.5973 4.15534 17.5023C3.92712 17.4074 3.71992 17.2682 3.54564 17.0929C3.37137 16.9176 3.23345 16.7096 3.13981 16.4808C3.04618 16.252 2.99868 16.007 3.00003 15.7598V6.586C2.99856 6.3392 3.04609 6.09455 3.13986 5.86625C3.23363 5.63795 3.37178 5.43053 3.54629 5.25601C3.72081 5.08149 3.92824 4.94334 4.15654 4.84957C4.38484 4.75581 4.62948 4.70828 4.87628 4.70975H8.39049" stroke="white" stroke-width="1.5" stroke-linecap="round" stroke-linejoin="round"/>
<path d="M15.935 7.94451L12.7011 4.70976M6.23316 13.3342V11.6202C6.23474 11.3376 6.34716 11.0661 6.54586 10.8658L14.092 3.3196C14.1922 3.21835 14.3114 3.13797 14.4428 3.08311C14.5742 3.02825 14.7152 3 14.8576 3C15 3 15.141 3.02825 15.2724 3.08311C15.4038 3.13797 15.523 3.21835 15.6231 3.3196L17.326 5.02247C17.4272 5.1226 17.5076 5.24182 17.5625 5.37322C17.6173 5.50463 17.6456 5.64561 17.6456 5.78801C17.6456 5.93041 17.6173 6.07139 17.5625 6.2028C17.5076 6.33421 17.4272 6.45342 17.326 6.55355L9.77982 14.0997C9.57916 14.299 9.30816 14.4113 9.02536 14.4124H7.31141C7.16975 14.4126 7.02944 14.3849 6.89853 14.3308C6.76762 14.2767 6.64867 14.1972 6.5485 14.0971C6.44834 13.9969 6.36892 13.878 6.31481 13.7471C6.26069 13.6161 6.23295 13.4758 6.23316 13.3342Z" stroke="white" stroke-width="1.5" stroke-linecap="round" stroke-linejoin="round"/>
</svg>
