<svg width="24" height="24" viewBox="0 0 24 24" fill="none" xmlns="http://www.w3.org/2000/svg">
<g clip-path="url(#clip0_3372_201)">
<path fill-rule="evenodd" clip-rule="evenodd" d="M13.2 11.5307C14.473 11.5307 15.6939 12.0166 16.5941 12.8816C17.4943 13.7466 18 14.9197 18 16.143V18.4491C18 18.7549 17.8736 19.0482 17.6485 19.2645C17.4235 19.4807 17.1183 19.6022 16.8 19.6022C16.4817 19.6022 16.1765 19.4807 15.9515 19.2645C15.7264 19.0482 15.6 18.7549 15.6 18.4491V16.143C15.6 15.5314 15.3471 14.9448 14.8971 14.5123C14.447 14.0798 13.8365 13.8368 13.2 13.8368H4.8C4.16348 13.8368 3.55303 14.0798 3.10294 14.5123C2.65286 14.9448 2.4 15.5314 2.4 16.143V18.4491C2.4 18.7549 2.27357 19.0482 2.04853 19.2645C1.82348 19.4807 1.51826 19.6022 1.2 19.6022C0.88174 19.6022 0.576515 19.4807 0.351472 19.2645C0.126428 19.0482 0 18.7549 0 18.4491V16.143C0 14.9197 0.505713 13.7466 1.40589 12.8816C2.30606 12.0166 3.52696 11.5307 4.8 11.5307H13.2ZM20.4 11.5307C21.3548 11.5307 22.2705 11.8952 22.9456 12.5439C23.6207 13.1926 24 14.0725 24 14.9899V17.2961C24 17.6019 23.8736 17.8952 23.6485 18.1114C23.4235 18.3276 23.1183 18.4491 22.8 18.4491C22.4817 18.4491 22.1765 18.3276 21.9515 18.1114C21.7264 17.8952 21.6 17.6019 21.6 17.2961V14.9899C21.6 14.6841 21.4736 14.3908 21.2485 14.1746C21.0235 13.9583 20.7183 13.8368 20.4 13.8368H18.7008C18.2857 12.9233 17.6312 12.1287 16.8012 11.5307H20.4ZM9 0C10.4322 0 11.8057 0.546677 12.8184 1.51977C13.8311 2.49286 14.4 3.81266 14.4 5.18882C14.4 6.56497 13.8311 7.88477 12.8184 8.85786C11.8057 9.83095 10.4322 10.3776 9 10.3776C7.56783 10.3776 6.19432 9.83095 5.18162 8.85786C4.16893 7.88477 3.6 6.56497 3.6 5.18882C3.6 3.81266 4.16893 2.49286 5.18162 1.51977C6.19432 0.546677 7.56783 0 9 0ZM19.2 3.45921C20.1548 3.45921 21.0705 3.82366 21.7456 4.47239C22.4207 5.12112 22.8 6.00098 22.8 6.91842C22.8 7.83586 22.4207 8.71572 21.7456 9.36445C21.0705 10.0132 20.1548 10.3776 19.2 10.3776C18.2452 10.3776 17.3295 10.0132 16.6544 9.36445C15.9793 8.71572 15.6 7.83586 15.6 6.91842C15.6 6.00098 15.9793 5.12112 16.6544 4.47239C17.3295 3.82366 18.2452 3.45921 19.2 3.45921ZM9 2.30614C8.20435 2.30614 7.44129 2.60985 6.87868 3.15046C6.31607 3.69106 6 4.42428 6 5.18882C6 5.95335 6.31607 6.68657 6.87868 7.22717C7.44129 7.76778 8.20435 8.07149 9 8.07149C9.79565 8.07149 10.5587 7.76778 11.1213 7.22717C11.6839 6.68657 12 5.95335 12 5.18882C12 4.42428 11.6839 3.69106 11.1213 3.15046C10.5587 2.60985 9.79565 2.30614 9 2.30614ZM19.2 5.76535C18.8817 5.76535 18.5765 5.88683 18.3515 6.10308C18.1264 6.31932 18 6.61261 18 6.91842C18 7.22423 18.1264 7.51752 18.3515 7.73376C18.5765 7.95001 18.8817 8.07149 19.2 8.07149C19.5183 8.07149 19.8235 7.95001 20.0485 7.73376C20.2736 7.51752 20.4 7.22423 20.4 6.91842C20.4 6.61261 20.2736 6.31932 20.0485 6.10308C19.8235 5.88683 19.5183 5.76535 19.2 5.76535Z" fill="white"/>
</g>
<defs>
<clipPath id="clip0_3372_201">
<rect width="24" height="24" fill="white"/>
</clipPath>
</defs>
</svg>
