<svg width="35" height="35" viewBox="0 0 35 35" fill="none" xmlns="http://www.w3.org/2000/svg">
<path d="M29.6479 25.7498C29.8083 25.216 29.8958 24.6487 29.8958 24.0625V10.9375C29.8958 9.39039 29.2812 7.90666 28.1873 6.8127C27.0933 5.71874 25.6096 5.10416 24.0625 5.10416H10.9375C9.39039 5.10416 7.90666 5.71874 6.8127 6.8127C5.71874 7.90666 5.10416 9.39039 5.10416 10.9375V24.1646C5.13092 25.6939 5.7573 27.1515 6.84838 28.2235C7.93945 29.2955 9.40792 29.8961 10.9375 29.8958H24.0625L24.2331 29.8929M29.6479 25.7498L29.5196 25.5981L25.9233 21.2581C25.6505 20.9289 25.3085 20.6637 24.9218 20.4813C24.535 20.2989 24.1129 20.2038 23.6853 20.2027C23.2577 20.2016 22.8351 20.2945 22.4474 20.4749C22.0597 20.6553 21.7164 20.9187 21.4419 21.2464L19.5285 23.5302L19.2164 23.9108M29.6479 25.7498C29.2941 26.9213 28.5809 27.9504 27.6092 28.6942C26.6374 29.438 25.4563 29.8573 24.2331 29.8929M19.2164 23.9108L24.0975 29.7383L24.2331 29.8929M19.2164 23.9108L14.5104 18.2919C14.2366 17.9651 13.8946 17.7024 13.5084 17.5221C13.1221 17.3418 12.701 17.2484 12.2748 17.2484C11.8485 17.2484 11.4275 17.3418 11.0412 17.5221C10.655 17.7024 10.3129 17.9651 10.0392 18.2919L5.36374 23.8729L5.10561 24.166" stroke="#65676B" stroke-width="1.5" stroke-linecap="round" stroke-linejoin="round"/>
<path d="M22.0077 15.1798C23.2158 15.1798 24.1952 14.2004 24.1952 12.9923C24.1952 11.7842 23.2158 10.8048 22.0077 10.8048C20.7996 10.8048 19.8202 11.7842 19.8202 12.9923C19.8202 14.2004 20.7996 15.1798 22.0077 15.1798Z" fill="#65676B"/>
</svg>
