<svg width="17" height="17" viewBox="0 0 17 17" fill="none" xmlns="http://www.w3.org/2000/svg">
<path d="M12.4893 3.40643C14.7205 5.60085 14.7205 9.11276 12.519 11.2781L8.50207 15.2292L4.48369 11.2781C3.96109 10.7675 3.54584 10.1576 3.26232 9.48415C2.97881 8.81074 2.83276 8.08746 2.83276 7.35681C2.83276 6.62615 2.97881 5.90287 3.26232 5.22946C3.54584 4.55605 3.96109 3.94611 4.48369 3.43547L4.51344 3.40643C5.57606 2.35842 7.00853 1.77087 8.501 1.77087C9.99347 1.77087 11.4267 2.35842 12.4893 3.40643ZM12.4893 3.40643C12.4595 3.37668 12.4595 3.37668 12.4893 3.40643ZM9.91661 6.72922C9.91661 7.10495 9.76735 7.46528 9.50168 7.73096C9.236 7.99663 8.87566 8.14589 8.49994 8.14589C8.12422 8.14589 7.76388 7.99663 7.49821 7.73096C7.23253 7.46528 7.08327 7.10495 7.08327 6.72922C7.08327 6.3535 7.23253 5.99316 7.49821 5.72749C7.76388 5.46181 8.12422 5.31256 8.49994 5.31256C8.87566 5.31256 9.236 5.46181 9.50168 5.72749C9.76735 5.99316 9.91661 6.3535 9.91661 6.72922Z" stroke="#65676B" stroke-width="1.5" stroke-miterlimit="10" stroke-linecap="round" stroke-linejoin="round"/>
</svg>
