<svg width="60" height="60" viewBox="0 0 60 60" fill="none" xmlns="http://www.w3.org/2000/svg">
<path fill-rule="evenodd" clip-rule="evenodd" d="M52.5001 32.6C52.5001 32.8275 52.4501 33.0475 52.3576 33.2375L42.7076 51.2625C42.5197 51.6292 42.2359 51.938 41.8863 52.1559C41.5367 52.3739 41.1345 52.4928 40.7226 52.5H19.2751C18.8634 52.493 18.4614 52.3745 18.1118 52.157C17.7622 51.9395 17.4782 51.6312 17.2901 51.265L7.64006 33.235C7.54752 33.0361 7.49973 32.8194 7.50006 32.6C7.50006 31.855 8.06006 31.25 8.75256 31.25H19.3401L22.0251 36.165L22.0401 36.195C22.1177 36.3406 22.2245 36.4687 22.3539 36.5712C22.4833 36.6737 22.6324 36.7484 22.792 36.7906C22.9515 36.8328 23.1181 36.8417 23.2812 36.8167C23.4443 36.7916 23.6005 36.7332 23.7401 36.645L23.7701 36.625C24.0468 36.4335 24.2421 36.1455 24.3176 35.8175L27.7351 21.5625L30.6726 44.5125L30.6776 44.545C30.7851 45.2675 31.4076 45.7675 32.0851 45.6675L32.1151 45.6625C32.3617 45.6122 32.5884 45.4914 32.7676 45.3148C32.9469 45.1382 33.0711 44.9133 33.1251 44.6675L37.2476 27.485L38.9401 30.585L38.9551 30.6125C39.0615 30.8019 39.2154 30.9604 39.4018 31.0722C39.5881 31.184 39.8003 31.2453 40.0176 31.25H51.2501C51.9426 31.25 52.5001 31.855 52.5001 32.6ZM40.7226 7.5C41.5401 7.5 42.2976 7.97 42.7051 8.735L52.3576 26.7625C52.4517 26.9627 52.5003 27.1813 52.5001 27.4025C52.5001 28.1475 51.9401 28.7525 51.2476 28.7525H40.6226L37.9401 23.8375L37.9226 23.805C37.761 23.5174 37.4923 23.3053 37.1751 23.215L37.1451 23.2075C36.4851 23.04 35.8201 23.4725 35.6476 24.1825L32.2301 38.44L29.2951 15.49L29.2901 15.4575C29.2567 15.2059 29.1518 14.9693 28.9878 14.7756C28.8238 14.5819 28.6077 14.4394 28.3651 14.365C27.6976 14.18 27.0151 14.615 26.8401 15.335L22.7176 32.5175L21.0276 29.4175L21.0101 29.39C20.9036 29.2006 20.7497 29.0421 20.5634 28.9303C20.377 28.8185 20.1648 28.7572 19.9476 28.7525H8.75006C8.05756 28.7525 7.49756 28.1475 7.49756 27.4025C7.49756 27.175 7.54506 26.9575 7.63756 26.77L17.2901 8.735C17.4784 8.36843 17.7628 8.0599 18.1129 7.84238C18.4629 7.62487 18.8655 7.50652 19.2776 7.5H40.7226Z" fill="url(#paint0_linear_3372_2)"/>
<defs>
<linearGradient id="paint0_linear_3372_2" x1="45.5651" y1="5.3675" x2="13.3151" y2="51.7225" gradientUnits="userSpaceOnUse">
<stop stop-color="#00EAFF"/>
<stop offset="0.253" stop-color="#0080FF"/>
<stop offset="0.497" stop-color="#8000FF"/>
<stop offset="0.75" stop-color="#E619E6"/>
<stop offset="0.999" stop-color="#FF0000"/>
</linearGradient>
</defs>
</svg>
