<svg width="25" height="25" viewBox="0 0 25 25" fill="none" xmlns="http://www.w3.org/2000/svg">
<path d="M4.16666 18.75C4.16666 17.645 4.60564 16.5852 5.38704 15.8038C6.16845 15.0224 7.22825 14.5834 8.33332 14.5834H16.6667C17.7717 14.5834 18.8315 15.0224 19.6129 15.8038C20.3943 16.5852 20.8333 17.645 20.8333 18.75C20.8333 19.3026 20.6138 19.8325 20.2231 20.2232C19.8324 20.6139 19.3025 20.8334 18.75 20.8334H6.24999C5.69746 20.8334 5.16755 20.6139 4.77685 20.2232C4.38615 19.8325 4.16666 19.3026 4.16666 18.75Z" stroke="#65676B" stroke-width="2" stroke-linejoin="round"/>
<path d="M12.5 10.4167C14.2259 10.4167 15.625 9.01758 15.625 7.29169C15.625 5.5658 14.2259 4.16669 12.5 4.16669C10.7741 4.16669 9.375 5.5658 9.375 7.29169C9.375 9.01758 10.7741 10.4167 12.5 10.4167Z" stroke="#65676B" stroke-width="2"/>
</svg>
