<svg width="25" height="25" viewBox="0 0 25 25" fill="none" xmlns="http://www.w3.org/2000/svg">
<path d="M12.5001 20.8333C17.1025 20.8333 20.8334 17.1023 20.8334 12.5C20.8334 7.89759 17.1025 4.16663 12.5001 4.16663C7.89771 4.16663 4.16675 7.89759 4.16675 12.5C4.16675 17.1023 7.89771 20.8333 12.5001 20.8333Z" stroke="#166FE5"/>
<path d="M18.9667 7.06767C18.2032 7.77183 17.2438 8.34267 16.1574 8.74058C15.0709 9.1385 13.8792 9.35517 12.6699 9.37392C11.476 9.39369 10.287 9.21594 9.15112 8.84788C8.04279 8.48329 7.05425 7.94163 6.25321 7.26142M19.0855 18.0458C18.3147 17.3 17.3303 16.6948 16.2032 16.276C15.043 15.85 13.8173 15.6297 12.5813 15.625C11.3434 15.6129 10.1128 15.8152 8.94383 16.2229C7.80633 16.625 6.80529 17.2156 6.01571 17.9489M12.5001 4.16663V20.8333M20.8334 12.5H4.16675" stroke="#166FE5"/>
</svg>
