<svg width="14" height="14" viewBox="0 0 14 14" fill="none" xmlns="http://www.w3.org/2000/svg">
<path d="M13.5 13.5L10.3634 10.3634M10.3634 10.3634C10.8999 9.8269 11.3255 9.18995 11.6159 8.48895C11.9063 7.78795 12.0557 7.03662 12.0557 6.27786C12.0557 5.5191 11.9063 4.76777 11.6159 4.06677C11.3255 3.36577 10.8999 2.72882 10.3634 2.1923C9.8269 1.65577 9.18995 1.23018 8.48895 0.939813C7.78795 0.649449 7.03662 0.5 6.27786 0.5C5.5191 0.5 4.76777 0.649449 4.06677 0.939813C3.36577 1.23018 2.72882 1.65577 2.1923 2.1923C1.10874 3.27586 0.5 4.74548 0.5 6.27786C0.5 7.81024 1.10874 9.27987 2.1923 10.3634C3.27586 11.447 4.74548 12.0557 6.27786 12.0557C7.81024 12.0557 9.27987 11.447 10.3634 10.3634Z" stroke="black" stroke-linecap="round" stroke-linejoin="round"/>
</svg>
