<svg width="30" height="30" viewBox="0 0 30 30" fill="none" xmlns="http://www.w3.org/2000/svg">
<path d="M15 17.5C16.3807 17.5 17.5 16.3807 17.5 15C17.5 13.6193 16.3807 12.5 15 12.5C13.6193 12.5 12.5 13.6193 12.5 15C12.5 16.3807 13.6193 17.5 15 17.5Z" stroke="white" stroke-width="1.5"/>
<path d="M6.7488 7.34999L7.21755 6.53749C7.03351 6.43132 6.81886 6.39081 6.60879 6.42261C6.39872 6.4544 6.20567 6.55661 6.0613 6.71249L6.7488 7.34999ZM4.25005 11.68L3.3538 11.4025C3.2911 11.6055 3.29926 11.8239 3.37693 12.0217C3.4546 12.2195 3.59719 12.3851 3.7813 12.4912L4.25005 11.68ZM4.24755 18.3187L3.7788 17.5062C3.59465 17.6126 3.45215 17.7785 3.37469 17.9766C3.29723 18.1746 3.28942 18.3931 3.35255 18.5962L4.24755 18.3187ZM6.74755 22.6487L6.06005 23.2862C6.20443 23.4421 6.39747 23.5443 6.60754 23.5761C6.81762 23.6079 7.03226 23.5674 7.2163 23.4612L6.74755 22.6487ZM12.4975 25.9675H11.56C11.56 26.405 11.8638 26.7837 12.29 26.8812L12.4975 25.9675ZM17.4988 25.97L17.7075 26.885C17.9147 26.8377 18.0997 26.7213 18.2321 26.5551C18.3645 26.3888 18.4365 26.1825 18.4363 25.97H17.4988ZM23.25 22.65L22.7813 23.4625C22.9653 23.5687 23.18 23.6092 23.3901 23.5774C23.6001 23.5456 23.7932 23.4434 23.9375 23.2875L23.25 22.65ZM25.7475 18.3175L26.6438 18.595C26.7065 18.3919 26.6983 18.1736 26.6207 17.9758C26.543 17.7779 26.4004 17.6124 26.2163 17.5062L25.7475 18.3175ZM25.75 11.6787L26.2188 12.4912C26.4029 12.3848 26.5454 12.219 26.6229 12.0209C26.7004 11.8228 26.7082 11.6043 26.645 11.4012L25.75 11.6787ZM23.25 7.34749L23.9375 6.71124C23.7932 6.55536 23.6001 6.45315 23.3901 6.42136C23.18 6.38956 22.9653 6.43007 22.7813 6.53624L23.25 7.34749ZM17.5 4.03123H18.4375C18.4375 3.81891 18.3654 3.61289 18.233 3.4469C18.1006 3.2809 17.9158 3.16476 17.7088 3.11749L17.5 4.03123ZM12.5 4.02874L12.2913 3.11374C12.0841 3.16106 11.8991 3.27739 11.7667 3.44364C11.6343 3.60989 11.5623 3.8162 11.5625 4.02874H12.5ZM5.1463 11.9575C5.60125 10.4786 6.38354 9.12128 7.43505 7.98623L6.06005 6.71124C4.81748 8.05245 3.89293 9.6563 3.35505 11.4037L5.1463 11.9575ZM6.0688 20.1562C5.68292 19.4886 5.37267 18.7801 5.1438 18.0437L3.3538 18.5975C3.6236 19.4676 3.98961 20.3048 4.44505 21.0937L6.0688 20.1562ZM7.4363 22.0137C6.91284 21.4473 6.45417 20.8243 6.0688 20.1562L4.44505 21.0937C4.90015 21.8828 5.44183 22.6173 6.06005 23.2862L7.4363 22.0137ZM17.2913 25.0575C15.783 25.4008 14.2167 25.3999 12.7088 25.055L12.2913 26.8825C14.0739 27.2906 15.9256 27.2919 17.7088 26.8862L17.2913 25.0575ZM24.8538 18.0425C24.3988 19.5213 23.6166 20.8787 22.565 22.0137L23.94 23.2887C25.1826 21.9475 26.1072 20.3437 26.645 18.5962L24.8538 18.0425ZM23.9313 9.84373C24.3238 10.5296 24.6321 11.2337 24.8563 11.9562L26.6463 11.4025C26.3765 10.5324 26.0105 9.69516 25.555 8.90623L23.9313 9.84373ZM22.5625 7.98623C23.075 8.53998 23.535 9.16123 23.93 9.84373L25.555 8.90623C25.0996 8.11716 24.5562 7.3801 23.9375 6.71124L22.5625 7.98623ZM12.7075 4.94249C14.2159 4.5992 15.7821 4.60006 17.29 4.94499L17.7088 3.11749C15.9262 2.70938 14.0732 2.7081 12.29 3.11374L12.7075 4.94249ZM13.4363 6.33999V4.02748H11.5613V6.33999H13.4363ZM9.2188 7.69248L7.21755 6.53749L6.28005 8.16123L8.28005 9.31624L9.2188 7.69248ZM5.7813 16.3537L3.78005 17.5087L4.71755 19.1325L6.7188 17.9775L5.7813 16.3537ZM6.7188 12.0225L4.7188 10.8687L3.7813 12.4937L5.7813 13.6475L6.7188 12.0225ZM13.4375 25.9687V23.66H11.5625V25.9687H13.4375ZM8.2813 20.6837L6.28005 21.8387L7.21755 23.4637L9.21755 22.3075L8.2813 20.6837ZM23.72 21.8387L21.7188 20.6837L20.7813 22.3075L22.7813 23.4625L23.72 21.8387ZM18.4375 25.9712V23.66H16.5625V25.9725L18.4375 25.9712ZM25.2825 10.8675L23.2813 12.0225L24.2188 13.6475L26.2188 12.4912L25.2825 10.8675ZM26.2175 17.5075L24.2188 16.3525L23.2813 17.9775L25.2813 19.1312L26.2175 17.5075ZM18.4375 6.33999V4.03123H16.5625V6.33999H18.4375ZM22.7825 6.53749L20.7813 7.69248L21.7188 9.31748L23.72 8.16123L22.7825 6.53749ZM16.5625 6.33999C16.5625 8.98624 19.4275 10.6412 21.7188 9.31748L20.7813 7.69248C20.5438 7.82959 20.2744 7.90179 20.0002 7.90182C19.726 7.90185 19.4566 7.82971 19.2191 7.69265C18.9816 7.55559 18.7843 7.35844 18.6471 7.121C18.5099 6.88356 18.4377 6.6142 18.4375 6.33999H16.5625ZM23.2813 12.0225C20.99 13.3462 20.99 16.6537 23.2813 17.9775L24.2188 16.3525C23.9813 16.2153 23.7841 16.0181 23.6469 15.7806C23.5098 15.5431 23.4376 15.2736 23.4376 14.9994C23.4376 14.7251 23.5098 14.4557 23.6469 14.2181C23.7841 13.9806 23.9813 13.7834 24.2188 13.6462L23.2813 12.0225ZM21.7188 20.6837C19.4275 19.36 16.5625 21.0137 16.5625 23.66H18.4375C18.4377 23.3858 18.5099 23.1164 18.6471 22.879C18.7843 22.6415 18.9816 22.4444 19.2191 22.3073C19.4566 22.1703 19.726 22.0981 20.0002 22.0982C20.2744 22.0982 20.5438 22.1704 20.7813 22.3075L21.7188 20.6837ZM13.4375 23.66C13.4375 21.0137 10.5725 19.36 8.2813 20.6837L9.21755 22.3075C9.45503 22.1704 9.72566 22.0982 9.99988 22.0982C10.2741 22.0981 10.5435 22.1703 10.781 22.3073C11.0185 22.4444 11.2158 22.6415 11.353 22.879C11.4901 23.1164 11.5624 23.3858 11.5625 23.66H13.4375ZM6.7188 17.9775C9.01005 16.6537 9.01005 13.3462 6.7188 12.0225L5.7813 13.6475C6.01881 13.7846 6.21604 13.9819 6.35316 14.2194C6.49029 14.4569 6.56248 14.7263 6.56248 15.0006C6.56248 15.2749 6.49029 15.5443 6.35316 15.7818C6.21604 16.0193 6.01881 16.2166 5.7813 16.3537L6.7188 17.9775ZM11.5625 6.33999C11.5624 6.6142 11.4901 6.88356 11.353 7.121C11.2158 7.35844 11.0185 7.55559 10.781 7.69265C10.5435 7.82971 10.2741 7.90185 9.99988 7.90182C9.72566 7.90179 9.45628 7.82959 9.2188 7.69248L8.2813 9.31748C10.5725 10.64 13.4375 8.98624 13.4375 6.33999H11.5625Z" fill="white"/>
</svg>
