<svg width="29" height="29" viewBox="0 0 29 29" fill="none" xmlns="http://www.w3.org/2000/svg">
<path d="M20.0704 25.375C19.2697 25.375 18.5902 25.0951 18.032 24.5352C17.4745 23.9745 17.1958 23.2938 17.1958 22.4931C17.1958 22.3723 17.249 22.0674 17.3553 21.5784L8.65892 16.4152C8.39792 16.7165 8.07851 16.9529 7.70071 17.1245C7.3229 17.2961 6.91731 17.3819 6.48392 17.3819C5.68964 17.3819 5.01458 17.0991 4.45875 16.5336C3.90292 15.9681 3.625 15.2902 3.625 14.5C3.625 13.7097 3.90292 13.0319 4.45875 12.4664C5.01458 11.9009 5.68964 11.6181 6.48392 11.6181C6.9165 11.6181 7.3221 11.7039 7.70071 11.8755C8.07932 12.0471 8.39872 12.2839 8.65892 12.586L17.3565 7.44454C17.3001 7.28826 17.2594 7.13319 17.2345 6.97933C17.2087 6.82467 17.1958 6.66678 17.1958 6.50567C17.1958 5.70575 17.4765 5.02546 18.038 4.46479C18.5995 3.90493 19.281 3.625 20.0825 3.625C20.884 3.625 21.5639 3.90574 22.1222 4.46721C22.6804 5.02868 22.9591 5.71018 22.9583 6.51171C22.9575 7.31324 22.6776 7.99312 22.1185 8.55137C21.5595 9.10962 20.8788 9.38835 20.0765 9.38754C19.6398 9.38754 19.2371 9.29812 18.8681 9.11929C18.4992 8.94046 18.185 8.7 17.9256 8.39792L9.22683 13.5611C9.28322 13.7174 9.3239 13.8729 9.34888 14.0275C9.37465 14.1814 9.38754 14.3389 9.38754 14.5C9.38754 14.6611 9.37465 14.8186 9.34888 14.9725C9.3231 15.1263 9.28282 15.2818 9.22804 15.4389L17.9256 20.6021C18.1858 20.3 18.5 20.0595 18.8681 19.8807C19.2371 19.7019 19.6398 19.6125 20.0765 19.6125C20.8772 19.6125 21.5579 19.8928 22.1185 20.4535C22.6784 21.0157 22.9583 21.6976 22.9583 22.4992C22.9583 23.3007 22.6776 23.9806 22.1161 24.5388C21.5547 25.0971 20.8719 25.3758 20.0704 25.375ZM20.0765 24.1667C20.5509 24.1667 20.9485 24.0064 21.2691 23.6857C21.5897 23.3651 21.75 22.968 21.75 22.4943C21.75 22.0207 21.5897 21.6231 21.2691 21.3017C20.9485 20.9803 20.5513 20.82 20.0777 20.8208C19.604 20.8216 19.2065 20.9819 18.885 21.3017C18.5636 21.6215 18.4033 22.0187 18.4041 22.4931C18.4049 22.9676 18.5652 23.3651 18.885 23.6857C19.2048 24.0064 19.6012 24.1667 20.0765 24.1667ZM6.48392 16.1723C6.96403 16.1723 7.36681 16.012 7.69225 15.6914C8.01689 15.3708 8.17921 14.9737 8.17921 14.5C8.17921 14.0263 8.01689 13.6292 7.69225 13.3086C7.36761 12.988 6.96483 12.8277 6.48392 12.8277C6.01589 12.8277 5.62399 12.988 5.30821 13.3086C4.99243 13.6292 4.83414 14.0263 4.83333 14.5C4.83253 14.9737 4.99082 15.3712 5.30821 15.6926C5.6256 16.014 6.0175 16.1739 6.48392 16.1723ZM20.0777 8.17921C20.5513 8.17921 20.9485 8.0189 21.2691 7.69829C21.5897 7.37768 21.75 6.98014 21.75 6.50567C21.75 6.03119 21.5897 5.63406 21.2691 5.31425C20.9485 4.99444 20.5513 4.83414 20.0777 4.83333C19.604 4.83253 19.2065 4.99283 18.885 5.31425C18.5636 5.63567 18.4033 6.03321 18.4041 6.50688C18.4049 6.98054 18.5652 7.37768 18.885 7.69829C19.2048 8.0189 19.6024 8.17921 20.0777 8.17921Z" fill="#EF76D9"/>
</svg>
